<?xml version="1.0" standalone="no"?>
<!DOCTYPE svg PUBLIC "-//W3C//DTD SVG 1.1//EN" "http://www.w3.org/Graphics/SVG/1.1/DTD/svg11.dtd" >
<svg xmlns="http://www.w3.org/2000/svg">
<metadata></metadata>
<defs>
<font id="robotesqa_4fitalic" horiz-adv-x="1228" >
<font-face units-per-em="2048" ascent="1638" descent="-410" />
<missing-glyph horiz-adv-x="532" />
<glyph horiz-adv-x="0" />
<glyph horiz-adv-x="682" />
<glyph unicode=" "  horiz-adv-x="532" />
<glyph unicode="&#x09;" horiz-adv-x="532" />
<glyph unicode="&#xa0;" horiz-adv-x="532" />
<glyph unicode="!" horiz-adv-x="573" d="M123 0l45 328h328l-45 -328h-328zM199 532l108 779h328l-109 -779l-188 -163z" />
<glyph unicode="&#x22;" horiz-adv-x="614" d="M231 922l56 389h164l-56 -389l-94 -82zM477 922l55 389h164l-55 -389l-94 -82z" />
<glyph unicode="#" horiz-adv-x="1013" d="M143 0l23 164l129 287h-150l17 122h186l76 164h-162l17 123h200l203 451h86l-23 -164l-131 -287h152l203 451h86l-23 -164l-131 -287h152l-17 -123h-188l-76 -164h162l-16 -122h-199l-203 -451h-86l23 164l129 287h-150l-203 -451h-86zM485 573h150l76 164h-150z" />
<glyph unicode="$" horiz-adv-x="1310" d="M102 0l23 164h481l58 409h-318l-139 164l57 410l187 164h317l29 205h143l-29 -205h482l-23 -164h-481l-58 -410h318l139 -164l-57 -409l-187 -164h-317l-29 -205h-143l29 205h-482zM535 737h153l57 410h-153zM750 164h153l58 409h-154z" />
<glyph unicode="%" horiz-adv-x="1091" d="M121 0l22 164l926 1147h86l-22 -164l-926 -1147h-86zM207 893l49 352l76 66h235l56 -66l-50 -352l-73 -66h-236zM651 66l51 352l74 65h236l57 -65l-51 -352l-74 -66h-235z" />
<glyph unicode="&#x26;" horiz-adv-x="1433" d="M145 164l35 246l432 378l-125 359l25 164h643l-25 -164h-296l210 -610l228 200h141l-10 -82l-309 -270l135 -385h-346l-54 154l-174 -154h-368zM473 164h143l162 141l-114 332l-142 -125z" />
<glyph unicode="'" horiz-adv-x="368" d="M231 922l56 389h164l-56 -389l-94 -82z" />
<glyph unicode="(" horiz-adv-x="737" d="M100 -164l172 1229l375 328h246l-23 -164h-245l-219 -1557h245l-22 -164h-246z" />
<glyph unicode=")" horiz-adv-x="737" d="M-29 -492l23 164h246l219 1557h-246l23 164h245l283 -328l-174 -1229l-373 -328h-246z" />
<glyph unicode="*" horiz-adv-x="952" d="M276 1090l64 127l225 -78l37 254h139l-36 -254l251 78l27 -127l-254 -80l125 -203l-119 -84l-129 211l-186 -211l-94 84l180 203z" />
<glyph unicode="+" horiz-adv-x="1351" d="M205 573v164h471v471h164v-471h471v-164h-471v-471h-164v471h-471z" />
<glyph unicode="," horiz-adv-x="573" d="M111 -389l22 164l180 225h-190l45 328h328l-52 -369l-268 -348h-65z" />
<glyph unicode="-" horiz-adv-x="737" d="M205 573v164h491v-164h-491z" />
<glyph unicode="." horiz-adv-x="573" d="M123 0l45 328h328l-45 -328h-328z" />
<glyph unicode="/" horiz-adv-x="731" d="M-47 -410l12 86l850 1717h103l-13 -86l-850 -1717h-102z" />
<glyph unicode="0" d="M145 164l138 983l188 164h655l140 -164l-138 -983l-186 -164h-655zM473 164h328l137 983h-328z" />
<glyph unicode="1" horiz-adv-x="757" d="M178 983l23 164h245l187 164h123l-183 -1311h-327l137 983h-205z" />
<glyph unicode="2" horiz-adv-x="1146" d="M102 0l78 553l187 164h450l62 430h-574l23 164h737l141 -164l-61 -430l-187 -164h-450l-55 -389h614l-23 -164h-942z" />
<glyph unicode="3" horiz-adv-x="1105" d="M82 0l22 164h574l57 409h-327l24 164h328l57 410h-573l22 164h738l141 -164l-47 -328l-187 -164l142 -163l-47 -328l-187 -164h-737z" />
<glyph unicode="4" d="M106 328l23 164l682 819h270l-22 -164l-557 -655h344l47 327h328l-47 -327h102l-23 -164h-102l-45 -328h-328l45 328h-717z" />
<glyph unicode="5" horiz-adv-x="1146" d="M102 0l23 164h614l70 491h-287l-12 -82h-328l105 738h942l-23 -164h-610l-57 -410l174 82h282l142 -164l-70 -491l-186 -164h-779z" />
<glyph unicode="6" d="M145 164l138 983l188 164h778l-24 -164h-615l-45 -328h492l141 -164l-70 -491l-186 -164h-655zM473 164h328l69 491h-327z" />
<glyph unicode="7" horiz-adv-x="1146" d="M164 0l717 1147h-637l22 164h983l-22 -164l-717 -1147h-346z" />
<glyph unicode="8" d="M145 164l45 328l189 163l-141 164l45 328l188 164h655l140 -164l-45 -328l-187 -164l140 -163l-46 -328l-186 -164h-655zM473 164h328l57 409h-328zM553 737h328l57 410h-328z" />
<glyph unicode="9" d="M164 0l22 164h615l47 328h-492l-141 163l70 492l186 164h655l142 -164l-140 -983l-186 -164h-778zM543 655h327l70 492h-328z" />
<glyph unicode=":" horiz-adv-x="573" d="M123 0l45 328h328l-45 -328h-328zM209 614l47 328h328l-47 -328h-328z" />
<glyph unicode=";" horiz-adv-x="573" d="M111 -389l22 164l180 225h-190l45 328h328l-52 -369l-268 -348h-65zM209 614l45 328h328l-45 -328h-328z" />
<glyph unicode="&#x3c;" horiz-adv-x="1093" d="M121 571l24 168l985 572h46l-25 -164l-846 -492l709 -491l-23 -164h-45z" />
<glyph unicode="=" horiz-adv-x="1146" d="M205 410v163h901v-163h-901zM205 737v164h901v-164h-901z" />
<glyph unicode="&#x3e;" horiz-adv-x="1093" d="M102 0l23 164l848 491l-709 492l23 164h45l825 -572l-24 -168l-986 -571h-45z" />
<glyph unicode="?" horiz-adv-x="1187" d="M264 1147l23 164h819l141 -164l-45 -328l-188 -164h-226l-16 -123l-186 -163l-142 163l17 123l188 164h225l46 328h-656zM369 0l47 328h327l-47 -328h-327z" />
<glyph unicode="@" horiz-adv-x="1443" d="M145 164l115 819l186 164h871l141 -164l-98 -696h-328l12 82l-176 -82h-245l-140 164l35 245l187 164h245l152 -82l28 205h-696l-115 -819h1024l-22 -164h-1034zM811 451h246l35 245h-246z" />
<glyph unicode="A" horiz-adv-x="1273" d="M41 0l22 164l633 1147h217l342 -1147l-22 -164h-270l-74 246h-608l-134 -246h-106zM371 410h469l-166 557z" />
<glyph unicode="B" horiz-adv-x="1372" d="M123 0l184 1311h328l-12 -82l176 82h491l142 -164l-48 -328l-186 -164l141 -163l-47 -328l-186 -164h-983zM473 164h492l57 409h-492zM555 737h492l57 410h-492z" />
<glyph unicode="C" horiz-adv-x="1146" d="M145 164l138 983l188 164h778l-24 -164h-615l-137 -983h614l-22 -164h-778z" />
<glyph unicode="D" horiz-adv-x="1392" d="M123 0l184 1311h983l142 -164l-140 -983l-186 -164h-983zM473 164h492l139 983h-492z" />
<glyph unicode="E" horiz-adv-x="1167" d="M123 0l184 1311h983l-22 -164h-656l-57 -410h492l-25 -164h-492l-57 -409h655l-22 -164h-983z" />
<glyph unicode="F" horiz-adv-x="1167" d="M123 0l184 1311h983l-22 -164h-656l-57 -410h492l-25 -164h-492l-79 -573h-328z" />
<glyph unicode="G" horiz-adv-x="1331" d="M145 164l138 983l188 164h860l-24 -164h-697l-137 -983h430l58 409h-246l22 164h574l-80 -573l-187 -164h-757z" />
<glyph unicode="H" horiz-adv-x="1394" d="M123 0l184 1311h328l-80 -574h492l79 574h328l-184 -1311h-328l80 573h-492l-79 -573h-328z" />
<glyph unicode="I" horiz-adv-x="573" d="M123 0l184 1311h328l-184 -1311h-328z" />
<glyph unicode="J" horiz-adv-x="819" d="M41 0l22 164h328l162 1147h328l-162 -1147l-187 -164h-491z" />
<glyph unicode="K" horiz-adv-x="1232" d="M123 0l184 1311h328l-90 -635l725 635h45l-23 -164l-438 -383l340 -600l-23 -164h-270l-301 541l-84 -74l-65 -467h-328z" />
<glyph unicode="L" horiz-adv-x="1146" d="M123 0l184 1311h328l-162 -1147h655l-22 -164h-983z" />
<glyph unicode="M" horiz-adv-x="1576" d="M123 0l184 1311h164l453 -570l571 570h143l-184 -1311h-328l123 881l-463 -465l-376 465l-123 -881h-164z" />
<glyph unicode="N" horiz-adv-x="1310" d="M123 0l184 1311h164l623 -819l114 819h164l-184 -1311h-164l-623 819l-114 -819h-164z" />
<glyph unicode="O" horiz-adv-x="1392" d="M145 164l138 983l188 164h819l140 -164l-138 -983l-186 -164h-819zM473 164h492l137 983h-492z" />
<glyph unicode="P" horiz-adv-x="1331" d="M123 0l184 1311h328l-12 -82l176 82h450l142 -164l-84 -594l-187 -164h-450l-154 82l-65 -471h-328zM528 553h451l84 594h-451z" />
<glyph unicode="Q" horiz-adv-x="1392" d="M145 164l138 983l188 164h819l140 -164l-138 -983l-186 -164h-172l145 -184l-22 -164h-250l-268 348h-252zM473 164h492l137 983h-492z" />
<glyph unicode="R" horiz-adv-x="1351" d="M123 0l184 1311h328l-12 -82l176 82h450l142 -164l-76 -533l-187 -163h-106l227 -287l-22 -164h-250l-330 430l23 164h315l78 553h-451l-161 -1147h-328z" />
<glyph unicode="S" horiz-adv-x="1249" d="M102 0l23 164h717l57 409h-553l-139 164l57 410l187 164h880l-22 -164h-717l-57 -410h552l140 -164l-58 -409l-186 -164h-881z" />
<glyph unicode="T" horiz-adv-x="1187" d="M203 1147l22 164h1106l-22 -164h-389l-162 -1147h-328l162 1147h-389z" />
<glyph unicode="U" horiz-adv-x="1392" d="M145 164l162 1147h328l-162 -1147h492l161 1147h328l-162 -1147l-186 -164h-819z" />
<glyph unicode="V" horiz-adv-x="1273" d="M203 1147l22 164h271l288 -967l527 967h106l-22 -164l-633 -1147h-217z" />
<glyph unicode="W" horiz-adv-x="1925" d="M145 164l162 1147h328l-162 -1147h348l162 1147h328l-162 -1147h348l162 1147h328l-150 -1065l-526 -246h-348l-97 111l-231 -111h-348z" />
<glyph unicode="X" horiz-adv-x="1314" d="M61 0l23 164l494 448l-355 535l23 164h270l332 -504l545 504h45l-23 -164l-493 -449l354 -534l-23 -164h-270l-334 504l-543 -504h-45z" />
<glyph unicode="Y" horiz-adv-x="1273" d="M203 1147l22 164h271l387 -518l489 518h45l-22 -164l-484 -510l-90 -637h-327l88 627z" />
<glyph unicode="Z" horiz-adv-x="1208" d="M61 0l23 164l838 983h-699l23 164h1085l-22 -164l-838 -983h698l-22 -164h-1086z" />
<glyph unicode="[" horiz-adv-x="737" d="M53 -492l264 1885h574l-23 -164h-245l-220 -1557h246l-22 -164h-574z" />
<glyph unicode="\" horiz-adv-x="731" d="M195 1307l12 86h102l367 -1717l-12 -86h-103z" />
<glyph unicode="]" horiz-adv-x="737" d="M-29 -492l23 164h246l219 1557h-246l23 164h573l-264 -1885h-574z" />
<glyph unicode="^" horiz-adv-x="901" d="M262 985l6 45l346 281h41l269 -281l-6 -45h-154l-152 158l-196 -158h-154z" />
<glyph unicode="_" horiz-adv-x="1064" d="M20 -287h1024v-164h-1024v164z" />
<glyph unicode="`" horiz-adv-x="559" d="M307 1311h176l117 -144l-14 -102h-86z" />
<glyph unicode="a" horiz-adv-x="1187" d="M104 164l46 328l188 163h328l151 -82l35 246h-594l23 164h757l142 -164l-115 -819h-328l11 82l-175 -82h-327zM432 164h328l45 328h-328z" />
<glyph unicode="b" d="M123 0l196 1393h328l-69 -492l174 82h327l142 -164l-93 -655l-186 -164h-328l-151 82l-12 -82h-328zM473 164h328l92 655h-328z" />
<glyph unicode="c" horiz-adv-x="1044" d="M145 164l93 655l186 164h676l-23 -164h-512l-92 -655h512l-22 -164h-676z" />
<glyph unicode="d" d="M145 164l93 655l186 164h328l153 -82l68 492h327l-194 -1393h-328l10 82l-174 -82h-327zM473 164h328l92 655h-328z" />
<glyph unicode="e" horiz-adv-x="1187" d="M145 164l93 655l186 164h655l142 -164l-47 -327l-187 -164h-328l-151 82l-35 -246h614l-22 -164h-778zM518 492h328l47 327h-328z" />
<glyph unicode="f" horiz-adv-x="921" d="M123 0l172 1229l188 164h615l-25 -164h-450l-45 -328l174 82h163l-22 -164h-328l-114 -819h-328z" />
<glyph unicode="g" d="M86 -410l23 164h634l48 328l-177 -82h-327l-142 164l93 655l188 164h328l151 -82l13 82h327l-174 -1229l-186 -164h-799zM473 164h328l92 655h-328z" />
<glyph unicode="h" d="M123 0l196 1393h328l-69 -492l174 82h327l142 -164l-115 -819h-328l115 819h-328l-114 -819h-328z" />
<glyph unicode="i" horiz-adv-x="573" d="M123 0l137 983h328l-137 -983h-328zM285 1147l22 164h328l-23 -164h-327z" />
<glyph unicode="j" horiz-adv-x="550" d="M-98 -246l22 164h164l150 1065h327l-149 -1065l-187 -164h-327zM262 1147l23 164h327l-22 -164h-328z" />
<glyph unicode="k" horiz-adv-x="1069" d="M123 0l196 1393h328l-119 -844l531 434h45l-23 -164l-268 -217l217 -438l-22 -164h-271l-182 389l-57 -47l-47 -342h-328z" />
<glyph unicode="l" horiz-adv-x="593" d="M145 164l172 1229h328l-172 -1229h123l-23 -164h-286z" />
<glyph unicode="m" horiz-adv-x="1720" d="M123 0l137 983h328l-10 -82l174 82h245l97 -111l231 111h246l141 -164l-115 -819h-327l114 819h-245l-115 -819h-328l115 819h-246l-114 -819h-328z" />
<glyph unicode="n" d="M123 0l137 983h328l-10 -82l174 82h327l142 -164l-115 -819h-328l115 819h-328l-114 -819h-328z" />
<glyph unicode="o" d="M145 164l93 655l186 164h655l142 -164l-93 -655l-186 -164h-655zM473 164h328l92 655h-328z" />
<glyph unicode="p" d="M66 -410l196 1393h328l-12 -82l176 82h327l140 -164l-93 -655l-186 -164h-328l-151 82l-70 -492h-327zM473 164h328l92 655h-328z" />
<glyph unicode="q" d="M145 164l93 655l186 164h328l153 -82l10 82h328l-194 -1393h-328l67 492l-174 -82h-327zM473 164h328l92 655h-328z" />
<glyph unicode="r" horiz-adv-x="798" d="M123 0l115 819l186 164h491l-22 -164h-328l-114 -819h-328z" />
<glyph unicode="s" horiz-adv-x="1105" d="M102 0l23 164h573l35 246h-409l-142 163l35 246l186 164h717l-22 -164h-553l-35 -246h410l141 -163l-35 -246l-186 -164h-738z" />
<glyph unicode="t" horiz-adv-x="819" d="M145 164l144 1024h327l-38 -287l174 82h163l-22 -164h-328l-92 -655h328l-23 -164h-491z" />
<glyph unicode="u" d="M145 164l115 819h328l-115 -819h328l114 819h328l-137 -983h-328l10 82l-174 -82h-327z" />
<glyph unicode="v" horiz-adv-x="1079" d="M156 819l22 164h271l231 -664l389 664h107l-23 -164l-494 -819h-217z" />
<glyph unicode="w" horiz-adv-x="1720" d="M145 164l115 819h328l-115 -819h246l115 819h327l-114 -819h245l115 819h328l-103 -737l-526 -246h-246l-96 111l-232 -111h-245z" />
<glyph unicode="x" horiz-adv-x="1110" d="M102 0l23 164l319 295l-227 360l23 164h270l223 -348l367 348h45l-23 -164l-319 -297l227 -358l-22 -164h-271l-221 348l-369 -348h-45z" />
<glyph unicode="y" horiz-adv-x="1150" d="M156 819l22 164h271l325 -616l387 616h86l-22 -164l-770 -1229h-246l22 164h160l184 295z" />
<glyph unicode="z" horiz-adv-x="1146" d="M82 0l22 164l648 655h-555l22 164h983l-22 -164l-648 -655h555l-22 -164h-983z" />
<glyph unicode="{" horiz-adv-x="860" d="M96 389l23 164h205l71 512l375 328h246l-23 -164h-245l-84 -594l-187 -164l139 -164l-88 -635h246l-22 -164h-246l-283 328l78 553h-205z" />
<glyph unicode="|" horiz-adv-x="409" d="M94 -205l242 1721h164l-242 -1721h-164z" />
<glyph unicode="}" horiz-adv-x="860" d="M-29 -492l23 164h246l90 635l186 164l-141 164l84 594h-246l23 164h245l283 -328l-72 -512h205l-25 -164h-204l-78 -553l-373 -328h-246z" />
<glyph unicode="~" horiz-adv-x="1392" d="M186 451l35 245l187 164h327l142 -164l-13 -82h328l35 246h164l-35 -246l-187 -163h-327l-142 163l13 82h-328l-35 -245h-164z" />
<glyph unicode="&#xa1;" horiz-adv-x="573" d="M66 -410l108 779l188 163l140 -163l-109 -779h-327zM203 573l47 328h328l-48 -328h-327z" />
<glyph unicode="&#xa2;" horiz-adv-x="1044" d="M145 164l93 655l186 164h317l29 205h143l-28 -205h215l-23 -164h-215l-92 -655h215l-22 -164h-215l-29 -205h-144l29 205h-317zM473 164h154l92 655h-154z" />
<glyph unicode="&#xa3;" d="M164 0l12 82l186 164l74 532l-174 -82h-61l22 164h226l40 287l187 164h614l-22 -164h-451l-53 -369l176 82h164l-23 -164h-327l-47 -327l-234 -205h696l-22 -164h-983z" />
<glyph unicode="&#xa5;" horiz-adv-x="1273" d="M150 328l16 123h389l25 163h-390l17 123h293l-299 410l22 164h271l387 -516l489 516h45l-22 -164l-389 -410h309l-17 -123h-389l-24 -163h389l-17 -123h-389l-45 -328h-327l45 328h-389z" />
<glyph unicode="&#xa6;" horiz-adv-x="409" d="M94 -205l109 778h164l-109 -778h-164zM227 737l109 779h164l-109 -779h-164z" />
<glyph unicode="&#xa7;" horiz-adv-x="1187" d="M111 -82l22 164h615l34 246h-450l-142 164l35 245l187 164l-140 164l23 164l186 164h779l-23 -164h-614l-35 -246h450l142 -164l-35 -246l-187 -163l140 -164l-23 -164l-186 -164h-778zM522 512h287l39 287h-287z" />
<glyph unicode="&#xa8;" horiz-adv-x="819" d="M279 1106l22 164h184l-22 -164h-184zM668 1106l22 164h184l-22 -164h-184z" />
<glyph unicode="&#xa9;" horiz-adv-x="1392" d="M123 246v819l164 164h819l164 -164v-819l-164 -164h-819zM287 246h819v819h-819v-819zM451 492v327l81 82h328l82 -82v-82h-164v82h-164v-327h164v81h164v-81l-82 -82h-328z" />
<glyph unicode="&#xaa;" horiz-adv-x="737" d="M250 901l22 164l95 82h163l76 -41l17 123h-297l12 82h379l69 -82l-57 -410h-164l6 41l-88 -41h-164zM414 901h164l22 164h-164z" />
<glyph unicode="&#xab;" horiz-adv-x="817" d="M147 471l7 41l497 471h45l-20 -154l-359 -337l263 -338l-21 -154h-45zM475 471l6 41l324 307h45l-23 -153l-182 -174l133 -175l-20 -153h-45z" />
<glyph unicode="&#xad;" horiz-adv-x="737" d="M205 573v164h491v-164h-491z" />
<glyph unicode="&#xae;" horiz-adv-x="1392" d="M123 410v819l164 164h819l164 -164v-819l-164 -164h-819zM287 410h819v819h-819v-819zM451 573v492h409l82 -82v-143l-82 -82h-20l100 -103v-82h-125l-164 175v81h127v154h-164v-410h-163z" />
<glyph unicode="&#xaf;" horiz-adv-x="1024" d="M279 1106l16 123h778l-16 -123h-778z" />
<glyph unicode="&#xb0;" horiz-adv-x="737" d="M260 983l23 164l186 164h164l141 -164l-22 -164l-187 -164h-164zM346 1016l98 -115h99l131 115l14 98l-98 115h-98l-132 -115z" />
<glyph unicode="&#xb1;" horiz-adv-x="1351" d="M205 0v164h1106v-164h-1106zM205 758v164h471v471h164v-471h471v-164h-471v-471h-164v471h-471z" />
<glyph unicode="&#xb2;" horiz-adv-x="573" d="M156 737l39 277l92 82h225l31 215h-287l12 82h369l70 -82l-31 -215l-92 -82h-226l-28 -195h307l-10 -82h-471z" />
<glyph unicode="&#xb3;" horiz-adv-x="552" d="M145 737l11 82h286l29 205h-164l12 82h164l29 205h-287l13 82h368l70 -82l-23 -164l-94 -82l72 -82l-25 -164l-92 -82h-369z" />
<glyph unicode="&#xb4;" horiz-adv-x="497" d="M272 1065l15 102l157 144h177l-263 -246h-86z" />
<glyph unicode="&#xb8;" horiz-adv-x="737" d="M127 -410l12 82h287l16 123h-143l-70 82l17 123h82l-17 -123h144l69 -82l-16 -123l-94 -82h-287z" />
<glyph unicode="&#xb9;" horiz-adv-x="378" d="M193 1229l12 82h123l92 82h61l-90 -656h-164l68 492h-102z" />
<glyph unicode="&#xba;" horiz-adv-x="530" d="M207 893l49 352l76 66h235l56 -66l-50 -352l-73 -66h-236zM293 926q3 -3 6.5 -8t7.5 -9h170l19 17l41 286q-12 12 -15 17h-170l-18 -17z" />
<glyph unicode="&#xbb;" horiz-adv-x="817" d="M104 164l23 153l180 175l-133 174l23 153h45l237 -307l-6 -41l-323 -307h-46zM258 0l21 154l356 338l-260 337l20 154h45l367 -471l-6 -41l-498 -471h-45z" />
<glyph unicode="&#xbc;" horiz-adv-x="1370" d="M256 0l12 86l781 1225h81l-12 -86l-780 -1225h-82zM262 1147l12 82h123l92 82h62l-90 -656h-164l68 492h-103zM690 164l10 82l342 409h136l-13 -82l-278 -327h172l24 164h164l-24 -164h51l-10 -82h-52l-22 -164h-164l23 164h-359z" />
<glyph unicode="&#xbd;" horiz-adv-x="1337" d="M236 0l12 86l780 1225h82l-12 -86l-781 -1225h-81zM262 1147l12 82h123l92 82h62l-90 -656h-164l68 492h-103zM748 0l38 276l93 82h225l31 215h-287l12 82h369l69 -82l-30 -215l-92 -82h-226l-28 -194h307l-10 -82h-471z" />
<glyph unicode="&#xbe;" horiz-adv-x="1505" d="M195 655l10 82h287l28 205h-164l13 82h163l29 205h-287l13 82h368l70 -82l-23 -164l-94 -82l72 -82l-25 -164l-92 -82h-368zM428 0l12 86l781 1225h82l-13 -86l-780 -1225h-82zM852 164l10 82l342 409h135l-12 -82l-278 -327h172l24 164h164l-25 -164h52l-11 -82h-51 l-22 -164h-164l22 164h-358z" />
<glyph unicode="&#xbf;" horiz-adv-x="1187" d="M68 -246l141 -164h819l23 164h-656l45 328h226l188 164l16 123l-141 163l-186 -163l-17 -123h-225l-188 -164zM571 573l47 328h328l-47 -328h-328z" />
<glyph unicode="&#xc0;" horiz-adv-x="1273" d="M41 0l22 164l633 1147h217l342 -1147l-22 -164h-270l-74 246h-608l-134 -246h-106zM371 410h469l-166 557zM586 1638h176l117 -143l-15 -102h-86z" />
<glyph unicode="&#xc1;" horiz-adv-x="1273" d="M41 0l22 164l633 1147h217l342 -1147l-22 -164h-270l-74 246h-608l-134 -246h-106zM371 410h469l-166 557zM772 1393l14 102l158 143h176l-262 -245h-86z" />
<glyph unicode="&#xc2;" horiz-adv-x="1273" d="M41 0l22 164l633 1147h217l342 -1147l-22 -164h-270l-74 246h-608l-134 -246h-106zM371 410h469l-166 557zM582 1393l12 82l211 163h125l166 -163l-13 -82h-53l-178 145l-217 -145h-53z" />
<glyph unicode="&#xc3;" horiz-adv-x="1273" d="M41 0l22 164l633 1147h217l342 -1147l-22 -164h-270l-74 246h-608l-134 -246h-106zM371 410h469l-166 557zM551 1434l16 122l95 82h163l70 -82l-4 -40h164l16 122h82l-16 -122l-95 -82h-163l-70 82l4 40h-164l-16 -122h-82z" />
<glyph unicode="&#xc4;" horiz-adv-x="1273" d="M41 0l22 164l633 1147h217l342 -1147l-22 -164h-270l-74 246h-608l-134 -246h-106zM371 410h469l-166 557zM551 1434l22 163h185l-23 -163h-184zM940 1434l23 163h184l-23 -163h-184z" />
<glyph unicode="&#xc5;" horiz-adv-x="1273" d="M41 0l22 164l633 1147h217l342 -1147l-22 -164h-270l-74 246h-608l-134 -246h-106zM371 410h469l-166 557zM700 1466l15 99l106 94h99l81 -94l-14 -99l-106 -94h-99zM766 1491l49 -57h49l66 57l6 49l-49 57h-49l-66 -57z" />
<glyph unicode="&#xc6;" horiz-adv-x="1722" d="M41 0l22 164l633 1147h1129l-23 -164h-573l-58 -410h410l-25 -164h-409l-57 -409h573l-23 -164h-901l35 246h-493l-134 -246h-106zM371 410h426l104 737h-129z" />
<glyph unicode="&#xc7;" horiz-adv-x="1146" d="M145 164l138 983l188 164h778l-24 -164h-615l-137 -983h614l-22 -164h-399l-19 -123h144l71 -82l-18 -123l-92 -82h-287l10 82h287l18 123h-143l-72 82l19 123h-297z" />
<glyph unicode="&#xc8;" horiz-adv-x="1167" d="M123 0l184 1311h983l-22 -164h-656l-57 -410h492l-25 -164h-492l-57 -409h655l-22 -164h-983zM655 1638h176l117 -143l-14 -102h-86z" />
<glyph unicode="&#xc9;" horiz-adv-x="1167" d="M123 0l184 1311h983l-22 -164h-656l-57 -410h492l-25 -164h-492l-57 -409h655l-22 -164h-983zM770 1393l14 102l158 143h176l-262 -245h-86z" />
<glyph unicode="&#xca;" horiz-adv-x="1167" d="M123 0l184 1311h983l-22 -164h-656l-57 -410h492l-25 -164h-492l-57 -409h655l-22 -164h-983zM528 1393l13 82l211 163h125l165 -163l-12 -82h-53l-178 145l-217 -145h-54z" />
<glyph unicode="&#xcb;" horiz-adv-x="1167" d="M123 0l184 1311h983l-22 -164h-656l-57 -410h492l-25 -164h-492l-57 -409h655l-22 -164h-983zM498 1434l22 163h185l-23 -163h-184zM887 1434l22 163h185l-23 -163h-184z" />
<glyph unicode="&#xcc;" horiz-adv-x="573" d="M123 0l184 1311h328l-184 -1311h-328zM252 1638h176l117 -143l-15 -102h-86z" />
<glyph unicode="&#xcd;" horiz-adv-x="573" d="M123 0l184 1311h328l-184 -1311h-328zM426 1393l14 102l158 143h176l-262 -245h-86z" />
<glyph unicode="&#xce;" horiz-adv-x="573" d="M123 0l184 1311h328l-184 -1311h-328zM233 1393l13 82l211 163h125l166 -163l-13 -82h-53l-178 145l-217 -145h-54z" />
<glyph unicode="&#xcf;" horiz-adv-x="573" d="M123 0l184 1311h328l-184 -1311h-328zM201 1434l22 163h185l-23 -163h-184zM590 1434l22 163h185l-23 -163h-184z" />
<glyph unicode="&#xd0;" horiz-adv-x="1495" d="M100 573l23 164h205l82 574h983l139 -164l-137 -983l-187 -164h-983l80 573h-205zM575 164h492l137 983h-491l-58 -410h246l-22 -164h-246z" />
<glyph unicode="&#xd1;" horiz-adv-x="1310" d="M123 0l184 1311h164l623 -819l114 819h164l-184 -1311h-164l-623 819l-114 -819h-164zM569 1434l17 122l94 82h164l69 -82l-4 -40h164l17 122h81l-16 -122l-94 -82h-164l-70 82l4 40h-163l-17 -122h-82z" />
<glyph unicode="&#xd2;" horiz-adv-x="1392" d="M145 164l138 983l188 164h819l140 -164l-138 -983l-186 -164h-819zM473 164h492l137 983h-492zM653 1638h176l117 -143l-14 -102h-86z" />
<glyph unicode="&#xd3;" horiz-adv-x="1392" d="M145 164l138 983l188 164h819l140 -164l-138 -983l-186 -164h-819zM473 164h492l137 983h-492zM823 1393l15 102l157 143h176l-262 -245h-86z" />
<glyph unicode="&#xd4;" horiz-adv-x="1392" d="M145 164l138 983l188 164h819l140 -164l-138 -983l-186 -164h-819zM473 164h492l137 983h-492zM641 1393l12 82l211 163h125l166 -163l-12 -82h-53l-179 145l-217 -145h-53z" />
<glyph unicode="&#xd5;" horiz-adv-x="1392" d="M145 164l138 983l188 164h819l140 -164l-138 -983l-186 -164h-819zM473 164h492l137 983h-492zM610 1434l17 122l94 82h164l69 -82l-4 -40h164l16 122h82l-16 -122l-94 -82h-164l-70 82l4 40h-163l-17 -122h-82z" />
<glyph unicode="&#xd6;" horiz-adv-x="1392" d="M145 164l138 983l188 164h819l140 -164l-138 -983l-186 -164h-819zM473 164h492l137 983h-492zM610 1434l23 163h184l-22 -163h-185zM999 1434l23 163h184l-22 -163h-185z" />
<glyph unicode="&#xd7;" horiz-adv-x="1142" d="M168 322l381 333l-287 334l131 115l287 -334l381 334l98 -115l-381 -334l287 -333l-131 -115l-287 334l-381 -334z" />
<glyph unicode="&#xd8;" horiz-adv-x="1392" d="M47 -41l12 86l103 98l-17 21l140 983l186 164h819l39 -49l96 90h103l-12 -86l-103 -99l19 -20l-140 -983l-186 -164h-819l-43 49l-94 -90h-103zM473 164h492l94 663l-570 -542zM518 485l567 543l19 119h-492z" />
<glyph unicode="&#xd9;" horiz-adv-x="1392" d="M145 164l162 1147h328l-162 -1147h492l161 1147h328l-162 -1147l-186 -164h-819zM664 1638h176l116 -143l-14 -102h-86z" />
<glyph unicode="&#xda;" horiz-adv-x="1392" d="M145 164l162 1147h328l-162 -1147h492l161 1147h328l-162 -1147l-186 -164h-819zM838 1393l14 102l158 143h176l-262 -245h-86z" />
<glyph unicode="&#xdb;" horiz-adv-x="1392" d="M145 164l162 1147h328l-162 -1147h492l161 1147h328l-162 -1147l-186 -164h-819zM641 1393l12 82l211 163h125l166 -163l-12 -82h-53l-179 145l-217 -145h-53z" />
<glyph unicode="&#xdc;" horiz-adv-x="1392" d="M145 164l162 1147h328l-162 -1147h492l161 1147h328l-162 -1147l-186 -164h-819zM610 1434l23 163h184l-22 -163h-185zM999 1434l23 163h184l-22 -163h-185z" />
<glyph unicode="&#xdd;" horiz-adv-x="1273" d="M203 1147l22 164h271l387 -518l489 518h45l-22 -164l-484 -510l-90 -637h-327l88 627zM856 1393l14 102l158 143h176l-262 -245h-86z" />
<glyph unicode="&#xde;" horiz-adv-x="1331" d="M123 0l184 1311h328l-41 -287l176 82h451l141 -164l-82 -573l-186 -164h-451l-151 82l-41 -287h-328zM502 369h450l82 573h-450z" />
<glyph unicode="&#xdf;" horiz-adv-x="1599" d="M156 819l22 164h328l35 246l186 164h350l142 -164l-64 -451h287l141 -164l-63 -450l-187 -164h-471l23 164h307l63 450h-122l-142 164l64 451h-187l-172 -1229h-327l127 901l-177 -82h-163z" />
<glyph unicode="&#xe0;" horiz-adv-x="1187" d="M104 164l46 328l188 163h328l151 -82l35 246h-594l23 164h757l142 -164l-115 -819h-328l11 82l-175 -82h-327zM432 164h328l45 328h-328zM590 1311h176l117 -144l-15 -102h-86z" />
<glyph unicode="&#xe1;" horiz-adv-x="1187" d="M104 164l46 328l188 163h328l151 -82l35 246h-594l23 164h757l142 -164l-115 -819h-328l11 82l-175 -82h-327zM432 164h328l45 328h-328zM616 1065l15 102l157 144h177l-263 -246h-86z" />
<glyph unicode="&#xe2;" horiz-adv-x="1187" d="M104 164l46 328l188 163h328l151 -82l35 246h-594l23 164h757l142 -164l-115 -819h-328l11 82l-175 -82h-327zM432 164h328l45 328h-328zM492 1065l12 82l211 164h125l166 -164l-13 -82h-53l-178 145l-217 -145h-53z" />
<glyph unicode="&#xe3;" horiz-adv-x="1187" d="M104 164l46 328l188 163h328l151 -82l35 246h-594l23 164h757l142 -164l-115 -819h-328l11 82l-175 -82h-327zM432 164h328l45 328h-328zM463 1106l16 123l94 82h164l70 -82l-4 -41h164l16 123h82l-16 -123l-95 -82h-163l-70 82l4 41h-164l-16 -123h-82z" />
<glyph unicode="&#xe4;" horiz-adv-x="1187" d="M104 164l46 328l188 163h328l151 -82l35 246h-594l23 164h757l142 -164l-115 -819h-328l11 82l-175 -82h-327zM432 164h328l45 328h-328zM463 1106l22 164h185l-23 -164h-184zM852 1106l22 164h185l-23 -164h-184z" />
<glyph unicode="&#xe5;" horiz-adv-x="1187" d="M104 164l46 328l188 163h328l151 -82l35 246h-594l23 164h757l142 -164l-115 -819h-328l11 82l-175 -82h-327zM432 164h328l45 328h-328zM610 1139l15 98l106 94h98l82 -94l-14 -98l-106 -95h-99zM676 1163l49 -57h49l66 57l6 49l-49 58h-49l-66 -58z" />
<glyph unicode="&#xe6;" horiz-adv-x="1720" d="M104 164l46 328l188 163h287l151 -82l35 246h-553l23 164h1331l141 -164l-47 -327l-186 -164h-287l-152 82l-34 -246h573l-23 -164h-901l11 82l-175 -82h-286zM432 164h287l45 328h-287zM1092 492h286l47 327h-286z" />
<glyph unicode="&#xe7;" horiz-adv-x="1044" d="M145 164l93 655l186 164h676l-23 -164h-512l-92 -655h512l-22 -164h-328l-19 -123h144l71 -82l-18 -123l-92 -82h-287l10 82h287l19 123h-144l-71 82l18 123h-266z" />
<glyph unicode="&#xe8;" horiz-adv-x="1187" d="M145 164l93 655l186 164h655l142 -164l-47 -327l-187 -164h-328l-151 82l-35 -246h614l-22 -164h-778zM518 492h328l47 327h-328zM621 1311h176l116 -144l-14 -102h-86z" />
<glyph unicode="&#xe9;" horiz-adv-x="1187" d="M145 164l93 655l186 164h655l142 -164l-47 -327l-187 -164h-328l-151 82l-35 -246h614l-22 -164h-778zM518 492h328l47 327h-328zM715 1065l14 102l158 144h176l-262 -246h-86z" />
<glyph unicode="&#xea;" horiz-adv-x="1187" d="M145 164l93 655l186 164h655l142 -164l-47 -327l-187 -164h-328l-151 82l-35 -246h614l-22 -164h-778zM492 1065l12 82l211 164h125l166 -164l-13 -82h-53l-178 145l-217 -145h-53zM518 492h328l47 327h-328z" />
<glyph unicode="&#xeb;" horiz-adv-x="1187" d="M145 164l93 655l186 164h655l142 -164l-47 -327l-187 -164h-328l-151 82l-35 -246h614l-22 -164h-778zM463 1106l22 164h185l-23 -164h-184zM518 492h328l47 327h-328zM852 1106l22 164h185l-23 -164h-184z" />
<glyph unicode="&#xec;" horiz-adv-x="573" d="M123 0l137 983h328l-137 -983h-328zM205 1311h176l117 -144l-15 -102h-86z" />
<glyph unicode="&#xed;" horiz-adv-x="573" d="M123 0l137 983h328l-137 -983h-328zM393 1065l15 102l157 144h176l-262 -246h-86z" />
<glyph unicode="&#xee;" horiz-adv-x="573" d="M123 0l137 983h328l-137 -983h-328zM186 1065l13 82l211 164h125l165 -164l-12 -82h-53l-178 145l-217 -145h-54z" />
<glyph unicode="&#xef;" horiz-adv-x="573" d="M123 0l137 983h328l-137 -983h-328zM156 1106l22 164h184l-22 -164h-184zM545 1106l22 164h185l-23 -164h-184z" />
<glyph unicode="&#xf0;" d="M145 164l66 471l188 164h469l-145 243l-168 -114l-61 98l170 117l-50 86h-180l23 164h245l93 -160l174 119l61 -99l-176 -120l332 -560l-58 -409l-186 -164h-655zM473 164h328l65 471h-327z" />
<glyph unicode="&#xf1;" d="M123 0l137 983h328l-10 -82l174 82h327l142 -164l-115 -819h-328l115 819h-328l-114 -819h-328zM483 1106l17 123l94 82h164l69 -82l-4 -41h164l17 123h81l-16 -123l-94 -82h-164l-70 82l4 41h-163l-17 -123h-82z" />
<glyph unicode="&#xf2;" d="M145 164l93 655l186 164h655l142 -164l-93 -655l-186 -164h-655zM473 164h328l92 655h-328zM571 1311h177l116 -144l-14 -102h-86z" />
<glyph unicode="&#xf3;" d="M145 164l93 655l186 164h655l142 -164l-93 -655l-186 -164h-655zM473 164h328l92 655h-328zM707 1065l14 102l158 144h176l-262 -246h-86z" />
<glyph unicode="&#xf4;" d="M145 164l93 655l186 164h655l142 -164l-93 -655l-186 -164h-655zM473 164h328l92 655h-328zM512 1065l12 82l211 164h125l166 -164l-12 -82h-53l-179 145l-217 -145h-53z" />
<glyph unicode="&#xf5;" d="M145 164l93 655l186 164h655l142 -164l-93 -655l-186 -164h-655zM473 164h328l92 655h-328zM483 1106l17 123l94 82h164l69 -82l-4 -41h164l17 123h81l-16 -123l-94 -82h-164l-70 82l4 41h-163l-17 -123h-82z" />
<glyph unicode="&#xf6;" d="M145 164l93 655l186 164h655l142 -164l-93 -655l-186 -164h-655zM473 164h328l92 655h-328zM483 1106l23 164h184l-22 -164h-185zM872 1106l23 164h184l-22 -164h-185z" />
<glyph unicode="&#xf8;" d="M39 -102l12 86l137 129l-43 51l93 655l186 164h655l17 -18l129 120h102l-12 -86l-137 -129l43 -51l-93 -655l-186 -164h-655l-19 18l-127 -120h-102zM473 164h328l57 407l-377 -354zM508 414l379 354l6 51h-328z" />
<glyph unicode="&#xf9;" d="M145 164l115 819h328l-115 -819h328l114 819h328l-137 -983h-328l10 82l-174 -82h-327zM528 1311h177l116 -144l-14 -102h-86z" />
<glyph unicode="&#xfa;" d="M145 164l115 819h328l-115 -819h328l114 819h328l-137 -983h-328l10 82l-174 -82h-327zM705 1065l14 102l158 144h176l-262 -246h-86z" />
<glyph unicode="&#xfb;" d="M145 164l115 819h328l-115 -819h328l114 819h328l-137 -983h-328l10 82l-174 -82h-327zM512 1065l12 82l211 164h125l166 -164l-12 -82h-53l-179 145l-217 -145h-53z" />
<glyph unicode="&#xfc;" d="M145 164l115 819h328l-115 -819h328l114 819h328l-137 -983h-328l10 82l-174 -82h-327zM483 1106l23 164h184l-22 -164h-185zM872 1106l23 164h184l-22 -164h-185z" />
<glyph unicode="&#xfd;" horiz-adv-x="1150" d="M156 819l22 164h271l325 -616l387 616h86l-22 -164l-770 -1229h-246l22 164h160l184 295zM719 1065l14 102l158 144h176l-262 -246h-86z" />
<glyph unicode="&#xfe;" d="M66 -410l253 1803h328l-69 -492l176 82h327l140 -164l-93 -655l-186 -164h-328l-151 82l-70 -492h-327zM473 164h328l92 655h-328z" />
<glyph unicode="&#xff;" horiz-adv-x="1150" d="M156 819l22 164h271l325 -616l387 616h86l-22 -164l-770 -1229h-246l22 164h160l184 295zM590 1106l22 164h185l-23 -164h-184zM979 1106l22 164h185l-23 -164h-184z" />
<glyph unicode="&#x100;" horiz-adv-x="1273" d="M41 0l22 164l633 1147h217l342 -1147l-22 -164h-270l-74 246h-608l-134 -246h-106zM371 410h469l-166 557zM449 1434l16 122h778l-16 -122h-778z" />
<glyph unicode="&#x101;" horiz-adv-x="1187" d="M104 164l46 328l188 163h328l151 -82l35 246h-594l23 164h757l142 -164l-115 -819h-328l11 82l-175 -82h-327zM360 1106l17 123h778l-16 -123h-779zM432 164h328l45 328h-328z" />
<glyph unicode="&#x102;" horiz-adv-x="1273" d="M41 0l22 164l633 1147h217l342 -1147l-22 -164h-270l-74 246h-608l-134 -246h-106zM371 410h469l-166 557zM563 1516l17 122h163l-14 -102h246l14 102h164l-16 -122l-95 -82h-409z" />
<glyph unicode="&#x103;" horiz-adv-x="1187" d="M104 164l46 328l188 163h328l151 -82l35 246h-594l23 164h757l142 -164l-115 -819h-328l11 82l-175 -82h-327zM432 164h328l45 328h-328zM475 1188l17 123h163l-14 -103h246l14 103h164l-16 -123l-95 -82h-409z" />
<glyph unicode="&#x104;" horiz-adv-x="1273" d="M41 0l22 164l633 1147h217l342 -1147l-22 -164l-211 -184l-8 -62h266l-10 -82h-266l-72 82l12 82l186 164h-167l-74 246h-608l-134 -246h-106zM371 410h469l-166 557z" />
<glyph unicode="&#x105;" horiz-adv-x="1187" d="M104 164l46 328l188 163h328l151 -82l35 246h-594l23 164h757l142 -164l-115 -819l-211 -184l-8 -62h266l-12 -82h-266l-70 82l12 82l187 164h-226l11 82l-175 -82h-327zM432 164h328l45 328h-328z" />
<glyph unicode="&#x106;" horiz-adv-x="1146" d="M145 164l138 983l188 164h778l-24 -164h-615l-137 -983h614l-22 -164h-778zM854 1393l14 102l158 143h176l-262 -245h-86z" />
<glyph unicode="&#x107;" horiz-adv-x="1044" d="M145 164l93 655l186 164h676l-23 -164h-512l-92 -655h512l-22 -164h-676zM723 1065l14 102l158 144h176l-262 -246h-86z" />
<glyph unicode="&#x10c;" horiz-adv-x="1146" d="M145 164l138 983l188 164h778l-24 -164h-615l-137 -983h614l-22 -164h-778zM633 1556l12 82h53l176 -145l220 145h53l-12 -82l-211 -163h-125z" />
<glyph unicode="&#x10d;" horiz-adv-x="1044" d="M145 164l93 655l186 164h676l-23 -164h-512l-92 -655h512l-22 -164h-676zM514 1229l12 82h54l176 -146l219 146h53l-12 -82l-211 -164h-125z" />
<glyph unicode="&#x10e;" horiz-adv-x="1392" d="M123 0l184 1311h983l142 -164l-140 -983l-186 -164h-983zM473 164h492l139 983h-492zM664 1556l12 82h53l176 -145l219 145h54l-13 -82l-211 -163h-125z" />
<glyph unicode="&#x10f;" horiz-adv-x="1761" d="M145 164l93 655l186 164h328l153 -82l68 492h327l-194 -1393h-328l10 82l-174 -82h-327zM473 164h328l92 655h-328zM1438 594l22 164l180 225h-190l45 328h328l-51 -369l-269 -348h-65z" />
<glyph unicode="&#x110;" horiz-adv-x="1515" d="M125 594l16 123h205l84 594h983l141 -164l-139 -983l-186 -164h-983l84 594h-205zM596 164h491l140 983h-492l-61 -430h225l-16 -123h-226z" />
<glyph unicode="&#x111;" horiz-adv-x="1331" d="M145 164l93 655l186 164h328l153 -82l33 246h-225l18 123h225l17 123h327l-16 -123h205l-19 -123h-204l-160 -1147h-328l10 82l-174 -82h-327zM473 164h328l92 655h-328z" />
<glyph unicode="&#x112;" horiz-adv-x="1167" d="M123 0l184 1311h983l-22 -164h-656l-57 -410h492l-25 -164h-492l-57 -409h655l-22 -164h-983zM395 1434l17 122h778l-16 -122h-779z" />
<glyph unicode="&#x113;" horiz-adv-x="1187" d="M145 164l93 655l186 164h655l142 -164l-47 -327l-187 -164h-328l-151 82l-35 -246h614l-22 -164h-778zM360 1106l17 123h778l-16 -123h-779zM518 492h328l47 327h-328z" />
<glyph unicode="&#x116;" horiz-adv-x="1167" d="M123 0l184 1311h983l-22 -164h-656l-57 -410h492l-25 -164h-492l-57 -409h655l-22 -164h-983zM688 1393l23 163h184l-23 -163h-184z" />
<glyph unicode="&#x117;" horiz-adv-x="1187" d="M145 164l93 655l186 164h655l142 -164l-47 -327l-187 -164h-328l-151 82l-35 -246h614l-22 -164h-778zM518 492h328l47 327h-328zM651 1065l23 164h184l-22 -164h-185z" />
<glyph unicode="&#x118;" horiz-adv-x="1167" d="M123 0l184 1311h983l-22 -164h-656l-57 -410h492l-25 -164h-492l-57 -409h655l-22 -164l-211 -184l-8 -62h266l-10 -82h-266l-72 82l12 82l187 164h-881z" />
<glyph unicode="&#x119;" horiz-adv-x="1187" d="M145 164l93 655l186 164h655l142 -164l-47 -327l-187 -164h-328l-151 82l-35 -246h614l-22 -164l-211 -184l-8 -62h266l-12 -82h-266l-70 82l12 82l187 164h-676zM518 492h328l47 327h-328z" />
<glyph unicode="&#x11a;" horiz-adv-x="1167" d="M123 0l184 1311h983l-22 -164h-656l-57 -410h492l-25 -164h-492l-57 -409h655l-22 -164h-983zM551 1556l12 82h53l177 -145l219 145h53l-12 -82l-211 -163h-125z" />
<glyph unicode="&#x11b;" horiz-adv-x="1187" d="M145 164l93 655l186 164h655l142 -164l-47 -327l-187 -164h-328l-151 82l-35 -246h614l-22 -164h-778zM514 1229l12 82h54l176 -146l219 146h53l-12 -82l-211 -164h-125zM518 492h328l47 327h-328z" />
<glyph unicode="&#x11e;" horiz-adv-x="1331" d="M145 164l138 983l188 164h860l-24 -164h-697l-137 -983h430l58 409h-246l22 164h574l-80 -573l-187 -164h-757zM623 1516l16 122h164l-15 -102h246l15 102h163l-16 -122l-94 -82h-410z" />
<glyph unicode="&#x11f;" d="M86 -410l23 164h634l48 328l-177 -82h-327l-142 164l93 655l188 164h328l151 -82l13 82h327l-174 -1229l-186 -164h-799zM473 164h328l92 655h-328zM496 1188l16 123h164l-14 -103h245l15 103h163l-16 -123l-94 -82h-410z" />
<glyph unicode="&#x122;" horiz-adv-x="1331" d="M145 164l138 983l188 164h860l-24 -164h-697l-137 -983h430l58 409h-246l22 164h574l-80 -573l-187 -164h-757zM567 -481l13 82l90 112h-97l25 164h164l-27 -184l-135 -174h-33z" />
<glyph unicode="&#x123;" d="M86 -410l23 164h634l48 328l-177 -82h-327l-142 164l93 655l188 164h328l151 -82l13 82h327l-174 -1229l-186 -164h-799zM473 164h328l92 655h-328zM682 1063l27 184l135 174h33l-13 -82l-92 -112h96l-22 -164h-164z" />
<glyph unicode="&#x12a;" horiz-adv-x="573" d="M98 1434l17 122h778l-16 -122h-779zM123 0l184 1311h328l-184 -1311h-328z" />
<glyph unicode="&#x12b;" horiz-adv-x="573" d="M53 1106l17 123h778l-17 -123h-778zM123 0l137 983h328l-137 -983h-328z" />
<glyph unicode="&#x12e;" horiz-adv-x="573" d="M123 0l184 1311h328l-184 -1311l-211 -184l-9 -62h267l-11 -82h-266l-71 82l12 82l186 164h-225z" />
<glyph unicode="&#x12f;" horiz-adv-x="573" d="M123 0l137 983h328l-137 -983l-211 -184l-9 -62h267l-11 -82h-266l-71 82l12 82l186 164h-225zM285 1147l22 164h328l-23 -164h-327z" />
<glyph unicode="&#x130;" horiz-adv-x="573" d="M123 0l184 1311h328l-184 -1311h-328zM391 1393l23 163h184l-23 -163h-184z" />
<glyph unicode="&#x131;" horiz-adv-x="573" d="M123 0l137 983h328l-137 -983h-328z" />
<glyph unicode="&#x136;" horiz-adv-x="1232" d="M123 0l184 1311h328l-90 -635l725 635h45l-23 -164l-438 -383l340 -600l-23 -164h-270l-301 541l-84 -74l-65 -467h-328zM487 -481l13 82l90 112h-96l24 164h164l-27 -184l-135 -174h-33z" />
<glyph unicode="&#x137;" horiz-adv-x="1069" d="M123 0l196 1393h328l-119 -844l531 434h45l-23 -164l-268 -217l217 -438l-22 -164h-271l-182 389l-57 -47l-47 -342h-328zM442 -481l13 82l90 112h-96l24 164h164l-27 -184l-135 -174h-33z" />
<glyph unicode="&#x139;" horiz-adv-x="1146" d="M123 0h983l22 164h-655l162 1147h-328zM489 1393l15 102l158 143h176l-263 -245h-86z" />
<glyph unicode="&#x13a;" horiz-adv-x="593" d="M145 164l172 1229h328l-172 -1229h123l-23 -164h-286zM453 1475l14 102l158 143h176l-262 -245h-86z" />
<glyph unicode="&#x13b;" horiz-adv-x="1146" d="M123 0l184 1311h328l-162 -1147h655l-22 -164h-983zM444 -481l13 82l90 112h-96l24 164h164l-27 -184l-135 -174h-33z" />
<glyph unicode="&#x13c;" horiz-adv-x="593" d="M145 164l172 1229h328l-172 -1229h123l-23 -164h-286zM168 -481l12 82l90 112h-96l25 164h163l-26 -184l-135 -174h-33z" />
<glyph unicode="&#x13d;" horiz-adv-x="1146" d="M123 0l184 1311h328l-162 -1147h655l-22 -164h-983zM823 594l23 164l180 225h-190l45 328h327l-51 -369l-268 -348h-66z" />
<glyph unicode="&#x13e;" horiz-adv-x="983" d="M145 164l172 1229h328l-172 -1229h123l-23 -164h-286zM700 594l23 164l180 225h-190l45 328h327l-51 -369l-268 -348h-66z" />
<glyph unicode="&#x141;" horiz-adv-x="1146" d="M59 571l152 66l96 674h328l-74 -520l230 100l34 -111l-282 -125l-70 -491h655l-22 -164h-983l70 504l-99 -43z" />
<glyph unicode="&#x142;" horiz-adv-x="780" d="M100 571l207 91l103 731h327l-80 -580l174 78l35 -111l-229 -100l-72 -516h123l-22 -164h-287l-141 164l51 362l-154 -65z" />
<glyph unicode="&#x143;" horiz-adv-x="1310" d="M123 0l184 1311h164l623 -819l114 819h164l-184 -1311h-164l-623 819l-114 -819h-164zM834 1393l14 102l158 143h176l-262 -245h-86z" />
<glyph unicode="&#x144;" d="M123 0l137 983h328l-10 -82l174 82h327l142 -164l-115 -819h-328l115 819h-328l-114 -819h-328zM606 1065l15 102l157 144h176l-262 -246h-86z" />
<glyph unicode="&#x145;" horiz-adv-x="1310" d="M123 0l184 1311h164l623 -819l114 819h164l-184 -1311h-164l-623 819l-114 -819h-164zM526 -481l13 82l90 112h-97l25 164h164l-27 -184l-135 -174h-33z" />
<glyph unicode="&#x146;" d="M123 0l137 983h328l-10 -82l174 82h327l142 -164l-115 -819h-328l115 819h-328l-114 -819h-328zM485 -481l13 82l90 112h-96l24 164h164l-27 -184l-135 -174h-33z" />
<glyph unicode="&#x147;" horiz-adv-x="1310" d="M123 0l184 1311h164l623 -819l114 819h164l-184 -1311h-164l-623 819l-114 -819h-164zM623 1556l12 82h53l176 -145l219 145h54l-13 -82l-211 -163h-125z" />
<glyph unicode="&#x148;" d="M123 0l137 983h328l-10 -82l174 82h327l142 -164l-115 -819h-328l115 819h-328l-114 -819h-328zM535 1229l12 82h53l176 -146l219 146h54l-13 -82l-211 -164h-125z" />
<glyph unicode="&#x14a;" horiz-adv-x="1310" d="M123 0l184 1311h164l623 -819l114 819h164l-225 -1598l-186 -164h-328l22 164h328l41 287l-623 819l-114 -819h-164z" />
<glyph unicode="&#x14b;" d="M123 0l137 983h328l-10 -82l174 82h327l142 -164l-156 -1106l-186 -164h-328l22 164h164l156 1106h-328l-114 -819h-328z" />
<glyph unicode="&#x14c;" horiz-adv-x="1392" d="M145 164l138 983l188 164h819l140 -164l-138 -983l-186 -164h-819zM473 164h492l137 983h-492zM508 1434l16 122h779l-17 -122h-778z" />
<glyph unicode="&#x14d;" d="M145 164l93 655l186 164h655l142 -164l-93 -655l-186 -164h-655zM381 1106l16 123h779l-17 -123h-778zM473 164h328l92 655h-328z" />
<glyph unicode="&#x150;" horiz-adv-x="1392" d="M145 164l138 983l188 164h819l140 -164l-138 -983l-186 -164h-819zM473 164h492l137 983h-492zM692 1393l15 102l157 143h176l-262 -245h-86zM979 1393l14 102l158 143h176l-262 -245h-86z" />
<glyph unicode="&#x151;" d="M145 164l93 655l186 164h655l142 -164l-93 -655l-186 -164h-655zM473 164h328l92 655h-328zM571 1065l15 102l157 144h177l-263 -246h-86zM858 1065l14 102l158 144h176l-262 -246h-86z" />
<glyph unicode="&#x152;" horiz-adv-x="1761" d="M145 164l138 983l188 164h1393l-25 -164h-532l-58 -410h369l-23 -164h-368l-58 -409h533l-23 -164h-1392zM473 164h369l137 983h-369z" />
<glyph unicode="&#x153;" horiz-adv-x="1761" d="M145 164l93 655l186 164h1229l141 -164l-47 -327l-186 -164h-287l-152 82l-35 -246h574l-23 -164h-1351zM473 164h287l92 655h-287zM1133 492h286l47 327h-286z" />
<glyph unicode="&#x154;" horiz-adv-x="1351" d="M123 0l184 1311h328l-12 -82l176 82h450l142 -164l-76 -533l-187 -163h-106l227 -287l-22 -164h-250l-330 430l23 164h315l78 553h-451l-161 -1147h-328zM825 1393l15 102l157 143h177l-263 -245h-86z" />
<glyph unicode="&#x155;" horiz-adv-x="798" d="M123 0l115 819l186 164h491l-22 -164h-328l-114 -819h-328zM557 1065l14 102l158 144h176l-262 -246h-86z" />
<glyph unicode="&#x156;" horiz-adv-x="1351" d="M123 0l184 1311h328l-12 -82l176 82h450l142 -164l-76 -533l-187 -163h-106l227 -287l-22 -164h-250l-330 430l23 164h315l78 553h-451l-161 -1147h-328zM547 -481l12 82l90 112h-96l25 164h163l-26 -184l-135 -174h-33z" />
<glyph unicode="&#x157;" horiz-adv-x="798" d="M123 0l115 819l186 164h491l-22 -164h-328l-114 -819h-328zM168 -481l12 82l90 112h-96l25 164h163l-26 -184l-135 -174h-33z" />
<glyph unicode="&#x158;" horiz-adv-x="1351" d="M123 0l184 1311h328l-12 -82l176 82h450l142 -164l-76 -533l-187 -163h-106l227 -287l-22 -164h-250l-330 430l23 164h315l78 553h-451l-161 -1147h-328zM643 1556l12 82h54l176 -145l219 145h53l-12 -82l-211 -163h-125z" />
<glyph unicode="&#x159;" horiz-adv-x="798" d="M123 0l115 819l186 164h491l-22 -164h-328l-114 -819h-328zM319 1229l13 82h53l176 -146l219 146h54l-13 -82l-211 -164h-125z" />
<glyph unicode="&#x15a;" horiz-adv-x="1249" d="M102 0l23 164h717l57 409h-553l-139 164l57 410l187 164h880l-22 -164h-717l-57 -410h552l140 -164l-58 -409l-186 -164h-881zM801 1393l14 102l158 143h176l-262 -245h-86z" />
<glyph unicode="&#x15b;" horiz-adv-x="1105" d="M102 0l23 164h573l35 246h-409l-142 163l35 246l186 164h717l-22 -164h-553l-35 -246h410l141 -163l-35 -246l-186 -164h-738zM664 1065l14 102l158 144h176l-262 -246h-86z" />
<glyph unicode="&#x15e;" horiz-adv-x="1249" d="M102 0l23 164h717l57 409h-553l-139 164l57 410l187 164h880l-22 -164h-717l-57 -410h552l140 -164l-58 -409l-186 -164h-328l-16 -123h143l70 -82l-16 -123l-95 -82h-286l12 82h287l16 123h-143l-70 82l16 123h-471z" />
<glyph unicode="&#x15f;" horiz-adv-x="1105" d="M102 0l23 164h573l35 246h-409l-142 163l35 246l186 164h717l-22 -164h-553l-35 -246h410l141 -163l-35 -246l-186 -164h-246l-16 -123h143l70 -82l-17 -123l-94 -82h-287l13 82h286l17 123h-144l-69 82l16 123h-410z" />
<glyph unicode="&#x160;" horiz-adv-x="1249" d="M102 0l23 164h717l57 409h-553l-139 164l57 410l187 164h880l-22 -164h-717l-57 -410h552l140 -164l-58 -409l-186 -164h-881zM623 1556l12 82h53l176 -145l219 145h54l-13 -82l-211 -163h-125z" />
<glyph unicode="&#x161;" horiz-adv-x="1105" d="M102 0l23 164h573l35 246h-409l-142 163l35 246l186 164h717l-22 -164h-553l-35 -246h410l141 -163l-35 -246l-186 -164h-738zM475 1229l12 82h54l176 -146l219 146h53l-12 -82l-211 -164h-125z" />
<glyph unicode="&#x162;" horiz-adv-x="1187" d="M203 1147l22 164h1106l-22 -164h-389l-162 -1147h-133l-17 -123h144l69 -82l-16 -123l-94 -82h-287l12 82h287l16 123h-143l-70 82l17 123h-113l162 1147h-389z" />
<glyph unicode="&#x163;" horiz-adv-x="819" d="M145 164l144 1024h327l-38 -287l174 82h163l-22 -164h-328l-92 -655h328l-23 -164h-286l-19 -123h143l72 -82l-18 -123l-92 -82h-287l10 82h287l18 123h-143l-72 82l19 123h-123z" />
<glyph unicode="&#x164;" horiz-adv-x="1187" d="M203 1147l22 164h1106l-22 -164h-389l-162 -1147h-328l162 1147h-389zM561 1556l12 82h54l176 -145l219 145h53l-12 -82l-211 -163h-125z" />
<glyph unicode="&#x165;" horiz-adv-x="1351" d="M145 164l144 1024h327l-38 -287l174 82h163l-22 -164h-328l-92 -655h328l-23 -164h-491zM1028 594l23 164l180 225h-191l45 328h328l-51 -369l-268 -348h-66z" />
<glyph unicode="&#x16a;" horiz-adv-x="1392" d="M145 164l162 1147h328l-162 -1147h492l161 1147h328l-162 -1147l-186 -164h-819zM508 1434l16 122h779l-17 -122h-778z" />
<glyph unicode="&#x16b;" d="M145 164l115 819h328l-115 -819h328l114 819h328l-137 -983h-328l10 82l-174 -82h-327zM381 1106l16 123h779l-17 -123h-778z" />
<glyph unicode="&#x16e;" horiz-adv-x="1392" d="M145 164l162 1147h328l-162 -1147h492l161 1147h328l-162 -1147l-186 -164h-819zM760 1466l14 99l107 94h98l82 -94l-14 -99l-107 -94h-98zM825 1491l49 -57h50l65 57l6 49l-49 57h-49l-66 -57z" />
<glyph unicode="&#x16f;" d="M145 164l115 819h328l-115 -819h328l114 819h328l-137 -983h-328l10 82l-174 -82h-327zM631 1139l14 98l107 94h98l82 -94l-14 -98l-107 -95h-98zM696 1163l49 -57h50l65 57l6 49l-49 58h-49l-66 -58z" />
<glyph unicode="&#x170;" horiz-adv-x="1392" d="M145 164l162 1147h328l-162 -1147h492l161 1147h328l-162 -1147l-186 -164h-819zM700 1393l15 102l157 143h177l-263 -245h-86zM987 1393l14 102l158 143h176l-262 -245h-86z" />
<glyph unicode="&#x171;" d="M145 164l115 819h328l-115 -819h328l114 819h328l-137 -983h-328l10 82l-174 -82h-327zM575 1065l15 102l158 144h176l-262 -246h-87zM862 1065l15 102l157 144h176l-262 -246h-86z" />
<glyph unicode="&#x172;" horiz-adv-x="1392" d="M145 164l162 1147h328l-162 -1147h492l161 1147h328l-162 -1147l-397 -348l-8 -62h266l-12 -82h-267l-69 82l12 82l187 164h-717z" />
<glyph unicode="&#x173;" d="M145 164l115 819h328l-115 -819h328l114 819h328l-137 -983l-211 -184l-8 -62h266l-12 -82h-267l-69 82l12 82l187 164h-226l10 82l-174 -82h-327z" />
<glyph unicode="&#x178;" horiz-adv-x="1273" d="M203 1147l22 164h271l387 -518l489 518h45l-22 -164l-484 -510l-90 -637h-327l88 627zM680 1399l22 164h185l-23 -164h-184zM1069 1399l23 164h184l-23 -164h-184z" />
<glyph unicode="&#x179;" horiz-adv-x="1208" d="M61 0h1086l22 164h-698l838 983l22 164h-1085l-23 -164h699l-838 -983zM692 1393l15 102l157 143h176l-262 -245h-86z" />
<glyph unicode="&#x17a;" horiz-adv-x="1146" d="M82 0h983l22 164h-555l648 655l22 164h-983l-22 -164h555l-648 -655zM631 1065l14 102l158 144h176l-262 -246h-86z" />
<glyph unicode="&#x17b;" horiz-adv-x="1208" d="M61 0h1086l22 164h-698l838 983l22 164h-1085l-23 -164h699l-838 -983zM709 1393l22 163h184l-22 -163h-184z" />
<glyph unicode="&#x17c;" horiz-adv-x="1146" d="M82 0h983l22 164h-555l648 655l22 164h-983l-22 -164h555l-648 -655zM631 1065l22 164h185l-23 -164h-184z" />
<glyph unicode="&#x17d;" horiz-adv-x="1208" d="M61 0h1086l22 164h-698l838 983l22 164h-1085l-23 -164h699l-838 -983zM571 1556l13 82h53l176 -145l219 145h53l-12 -82l-211 -163h-125z" />
<glyph unicode="&#x17e;" horiz-adv-x="1146" d="M82 0h983l22 164h-555l648 655l22 164h-983l-22 -164h555l-648 -655zM494 1229l12 82h53l176 -146l219 146h54l-13 -82l-211 -164h-125z" />
<glyph unicode="&#x192;" horiz-adv-x="1167" d="M-25 -471l23 164h328l170 1208l-174 -82h-164l22 164h328l35 246l186 164h614l-22 -164h-451l-47 -328l176 82h164l-22 -164h-328l-160 -1126l-186 -164h-492z" />
<glyph unicode="&#x2c6;" horiz-adv-x="747" d="M272 1065l13 82l211 164h125l165 -164l-12 -82h-53l-178 145l-217 -145h-54z" />
<glyph unicode="&#x2da;" horiz-adv-x="491" d="M262 1139l14 98l107 94h98l82 -94l-14 -98l-107 -95h-98zM328 1163l49 -57h49l66 57l6 49l-49 58h-50l-65 -58z" />
<glyph unicode="&#x2dc;" horiz-adv-x="819" d="M279 1106l16 123l94 82h164l70 -82l-5 -41h164l17 123h82l-17 -123l-94 -82h-164l-69 82l4 41h-164l-17 -123h-81z" />
<glyph unicode="&#x400;" horiz-adv-x="1167" d="M123 0l184 1311h983l-22 -164h-656l-57 -410h492l-25 -164h-492l-57 -409h655l-22 -164h-983zM655 1638h176l117 -143l-14 -102h-86z" />
<glyph unicode="&#x401;" horiz-adv-x="1167" d="M123 0l184 1311h983l-22 -164h-656l-57 -410h492l-25 -164h-492l-57 -409h655l-22 -164h-983zM498 1434l22 163h185l-23 -163h-184zM887 1434l22 163h185l-23 -163h-184z" />
<glyph unicode="&#x402;" horiz-adv-x="1556" d="M203 1147l22 164h1024l-22 -164h-389l-58 -410l176 82h451l139 -164l-67 -491l-189 -164h-450l24 164h287l68 491h-451l-92 -655h-328l162 1147h-307z" />
<glyph unicode="&#x403;" horiz-adv-x="1146" d="M123 0l184 1311h983l-22 -164h-656l-161 -1147h-328zM807 1393l14 102l158 143h176l-262 -245h-86z" />
<glyph unicode="&#x404;" horiz-adv-x="1146" d="M145 164l138 983l188 164h778l-24 -164h-615l-57 -410h491l-22 -164h-492l-57 -409h614l-22 -164h-778z" />
<glyph unicode="&#x405;" horiz-adv-x="1249" d="M102 0l23 164h717l57 409h-553l-139 164l57 410l187 164h880l-22 -164h-717l-57 -410h552l140 -164l-58 -409l-186 -164h-881z" />
<glyph unicode="&#x406;" horiz-adv-x="573" d="M123 0l184 1311h328l-184 -1311h-328z" />
<glyph unicode="&#x407;" horiz-adv-x="573" d="M123 0l184 1311h328l-184 -1311h-328zM268 1475l23 163h164l-23 -163h-164zM555 1475l23 163h163l-22 -163h-164z" />
<glyph unicode="&#x408;" horiz-adv-x="819" d="M41 0l22 164h328l162 1147h328l-162 -1147l-187 -164h-491z" />
<glyph unicode="&#x409;" horiz-adv-x="1945" d="M41 0l22 164l633 1147h635l-65 -471l174 82h368l142 -164l-84 -594l-187 -164h-860l162 1147h-209l-625 -1147h-106zM1169 164h369l84 594h-369z" />
<glyph unicode="&#x40a;" horiz-adv-x="1986" d="M123 0l184 1311h328l-80 -574h410l79 574h328l-65 -471l174 82h368l142 -164l-84 -594l-187 -164h-860l80 573h-410l-79 -573h-328zM1210 164h369l84 594h-369z" />
<glyph unicode="&#x40b;" horiz-adv-x="1556" d="M203 1147l22 164h1024l-22 -164h-389l-58 -410l176 82h451l139 -164l-92 -655h-328l93 655h-451l-92 -655h-328l162 1147h-307z" />
<glyph unicode="&#x40c;" horiz-adv-x="1232" d="M123 0l184 1311h328l-90 -635l725 635h45l-23 -164l-438 -383l340 -600l-23 -164h-270l-301 541l-84 -74l-65 -467h-328zM803 1393l14 102l158 143h176l-262 -245h-86z" />
<glyph unicode="&#x40d;" horiz-adv-x="1394" d="M123 0l184 1311h328l-123 -871l592 707l22 164h328l-184 -1311h-328l123 870l-592 -706l-22 -164h-328zM664 1638h176l116 -143l-14 -102h-86z" />
<glyph unicode="&#x40e;" horiz-adv-x="1273" d="M203 1147l22 164h271l381 -623l454 623h86l-22 -164l-842 -1147h-246l25 164h160l172 235zM705 1516l16 122h164l-15 -102h246l14 102h164l-16 -122l-94 -82h-410z" />
<glyph unicode="&#x40f;" horiz-adv-x="1394" d="M123 0l184 1311h328l-162 -1147h492l161 1147h328l-184 -1311h-492l-57 -410h-164l57 410h-491z" />
<glyph unicode="&#x410;" horiz-adv-x="1273" d="M41 0l22 164l633 1147h217l342 -1147l-22 -164h-270l-74 246h-608l-134 -246h-106zM371 410h469l-166 557z" />
<glyph unicode="&#x411;" horiz-adv-x="1331" d="M123 0l184 1311h1065l-22 -164h-738l-57 -410l174 82h451l141 -164l-70 -491l-186 -164h-942zM473 164h451l69 491h-450z" />
<glyph unicode="&#x412;" horiz-adv-x="1372" d="M123 0l184 1311h328l-12 -82l176 82h491l142 -164l-48 -328l-186 -164l141 -163l-47 -328l-186 -164h-983zM473 164h492l57 409h-492zM555 737h492l57 410h-492z" />
<glyph unicode="&#x413;" horiz-adv-x="1146" d="M123 0l184 1311h983l-22 -164h-656l-161 -1147h-328z" />
<glyph unicode="&#x414;" horiz-adv-x="1515" d="M-4 -328l70 492h120l631 1147h217l344 -1147h121l-69 -492h-164l45 328h-1106l-45 -328h-164zM358 164h678l-239 803z" />
<glyph unicode="&#x415;" horiz-adv-x="1167" d="M123 0l184 1311h983l-22 -164h-656l-57 -410h492l-25 -164h-492l-57 -409h655l-22 -164h-983z" />
<glyph unicode="&#x416;" horiz-adv-x="1892" d="M61 0l23 164l506 600l-326 383l23 164h45l545 -635l90 635h327l-90 -635l725 635h45l-22 -164l-439 -383l340 -600l-22 -164h-270l-301 541l-84 -74l-66 -467h-328l66 467l-66 74l-450 -541h-271z" />
<glyph unicode="&#x417;" horiz-adv-x="1249" d="M82 0l22 164h717l58 409h-553l24 164h553l58 410h-717l22 164h881l141 -164l-47 -328l-186 -164l141 -163l-47 -328l-186 -164h-881z" />
<glyph unicode="&#x418;" horiz-adv-x="1394" d="M123 0l184 1311h328l-123 -871l592 707l22 164h328l-184 -1311h-328l123 870l-592 -706l-22 -164h-328z" />
<glyph unicode="&#x419;" horiz-adv-x="1394" d="M123 0l184 1311h328l-123 -871l592 707l22 164h328l-184 -1311h-328l123 870l-592 -706l-22 -164h-328zM623 1516l16 122h164l-15 -102h246l15 102h163l-16 -122l-94 -82h-410z" />
<glyph unicode="&#x41a;" horiz-adv-x="1232" d="M123 0l184 1311h328l-90 -635l725 635h45l-23 -164l-438 -383l340 -600l-23 -164h-270l-301 541l-84 -74l-65 -467h-328z" />
<glyph unicode="&#x41b;" horiz-adv-x="1273" d="M41 0l22 164l633 1147h217l342 -1147l-22 -164h-270l-289 967l-527 -967h-106z" />
<glyph unicode="&#x41c;" horiz-adv-x="1576" d="M123 0l184 1311h164l453 -570l571 570h143l-184 -1311h-328l123 881l-463 -465l-376 465l-123 -881h-164z" />
<glyph unicode="&#x41d;" horiz-adv-x="1394" d="M123 0l184 1311h328l-80 -574h492l79 574h328l-184 -1311h-328l80 573h-492l-79 -573h-328z" />
<glyph unicode="&#x41e;" horiz-adv-x="1392" d="M145 164l138 983l188 164h819l140 -164l-138 -983l-186 -164h-819zM473 164h492l137 983h-492z" />
<glyph unicode="&#x41f;" horiz-adv-x="1394" d="M123 0l184 1311h1147l-184 -1311h-328l162 1147h-492l-161 -1147h-328z" />
<glyph unicode="&#x420;" horiz-adv-x="1331" d="M123 0l184 1311h328l-12 -82l176 82h450l142 -164l-84 -594l-187 -164h-450l-154 82l-65 -471h-328zM528 553h451l84 594h-451z" />
<glyph unicode="&#x421;" horiz-adv-x="1146" d="M145 164l138 983l188 164h778l-24 -164h-615l-137 -983h614l-22 -164h-778z" />
<glyph unicode="&#x422;" horiz-adv-x="1187" d="M203 1147l22 164h1106l-22 -164h-389l-162 -1147h-328l162 1147h-389z" />
<glyph unicode="&#x423;" horiz-adv-x="1273" d="M203 1147l22 164h271l381 -623l454 623h86l-22 -164l-842 -1147h-246l25 164h160l172 235z" />
<glyph unicode="&#x424;" horiz-adv-x="1802" d="M172 492l92 655l187 164h307l153 -82l23 164h328l-23 -164l174 82h307l142 -164l-93 -655l-186 -164h-307l-154 82l-57 -410h-328l58 410l-174 -82h-308zM500 492h307l92 655h-307zM1135 492h307l92 655h-307z" />
<glyph unicode="&#x425;" horiz-adv-x="1314" d="M61 0l23 164l494 448l-355 535l23 164h270l332 -504l545 504h45l-23 -164l-493 -449l354 -534l-23 -164h-270l-334 504l-543 -504h-45z" />
<glyph unicode="&#x426;" horiz-adv-x="1454" d="M123 0l184 1311h328l-162 -1147h492l161 1147h328l-162 -1147h164l-67 -492h-164l45 328h-1147z" />
<glyph unicode="&#x427;" horiz-adv-x="1331" d="M180 553l107 758h327l-106 -758h450l107 758h328l-185 -1311h-327l65 471l-174 -82h-450z" />
<glyph unicode="&#x428;" horiz-adv-x="1925" d="M123 0l184 1311h328l-162 -1147h348l162 1147h328l-162 -1147h348l162 1147h328l-185 -1311h-1679z" />
<glyph unicode="&#x429;" horiz-adv-x="1988" d="M123 0l184 1311h328l-162 -1147h348l162 1147h328l-162 -1147h348l162 1147h328l-162 -1147h164l-68 -492h-164l45 328h-1679z" />
<glyph unicode="&#x42a;" horiz-adv-x="1556" d="M182 1147l23 164h655l-65 -471l176 82h450l140 -164l-82 -594l-189 -164h-942l162 1147h-328zM700 164h451l82 594h-451z" />
<glyph unicode="&#x42b;" horiz-adv-x="1761" d="M123 0l184 1311h328l-66 -471l174 82h390l141 -164l-84 -594l-186 -164h-881zM473 164h389l84 594h-389zM1311 0l184 1311h328l-185 -1311h-327z" />
<glyph unicode="&#x42c;" horiz-adv-x="1331" d="M123 0l184 1311h328l-66 -471l174 82h451l141 -164l-84 -594l-186 -164h-942zM473 164h451l84 594h-451z" />
<glyph unicode="&#x42d;" horiz-adv-x="1146" d="M82 0l22 164h615l57 409h-491l24 164h492l57 410h-614l22 164h778l142 -164l-139 -983l-187 -164h-778z" />
<glyph unicode="&#x42e;" horiz-adv-x="1763" d="M123 0l184 1311h328l-80 -574h207l57 410l187 164h655l141 -164l-139 -983l-186 -164h-656l-141 164l57 409h-207l-79 -573h-328zM1008 164h327l140 983h-328z" />
<glyph unicode="&#x42f;" horiz-adv-x="1351" d="M125 0l22 164l310 287h-107l-141 163l76 533l186 164h451l151 -82l12 82h328l-184 -1311h-328l162 1147h-451l-77 -553h315l-23 -164l-452 -430h-250z" />
<glyph unicode="&#x430;" horiz-adv-x="1187" d="M104 164l46 328l188 163h328l151 -82l35 246h-594l23 164h757l142 -164l-115 -819h-328l11 82l-175 -82h-327zM432 164h328l45 328h-328z" />
<glyph unicode="&#x431;" d="M145 164l134 942l186 164h655l17 123h163l-16 -123l-186 -164h-492l-41 -287l176 82h328l139 -164l-80 -573l-186 -164h-655zM473 164h328l80 573h-328z" />
<glyph unicode="&#x432;" horiz-adv-x="1208" d="M123 0l137 983h819l142 -164l-23 -164l-186 -163l139 -164l-23 -164l-186 -164h-328l-151 82l-12 -82h-328zM473 164h328l35 246h-328zM530 573h328l35 246h-328z" />
<glyph unicode="&#x433;" horiz-adv-x="860" d="M123 0l137 983h696l-22 -164h-369l-114 -819h-328z" />
<glyph unicode="&#x434;" horiz-adv-x="1290" d="M-4 -328l70 492h102l494 819h217l286 -819h109l-70 -492h-164l45 328h-880l-45 -328h-164zM346 164h469l-176 500z" />
<glyph unicode="&#x435;" horiz-adv-x="1187" d="M145 164l93 655l186 164h655l142 -164l-47 -327l-187 -164h-328l-151 82l-35 -246h614l-22 -164h-778zM518 492h328l47 327h-328z" />
<glyph unicode="&#x436;" horiz-adv-x="1564" d="M61 0l23 164l338 436l-205 219l23 164h45l411 -434l60 434h327l-59 -434l530 434h45l-22 -164l-268 -217l217 -438l-23 -164h-270l-182 389l-58 -47l-47 -342h-328l48 342l-41 47l-293 -389h-271z" />
<glyph unicode="&#x437;" horiz-adv-x="1044" d="M82 0l22 164h512l35 246h-348l23 163h348l35 246h-512l22 164h676l141 -164l-22 -164l-187 -163l140 -164l-23 -164l-186 -164h-676z" />
<glyph unicode="&#x438;" d="M123 0l137 983h328l-80 -573l385 409l22 164h328l-137 -983h-328l80 573l-385 -409l-22 -164h-328z" />
<glyph unicode="&#x439;" d="M123 0l137 983h328l-80 -573l385 409l22 164h328l-137 -983h-328l80 573l-385 -409l-22 -164h-328zM496 1188l16 123h164l-14 -103h245l15 103h163l-16 -123l-94 -82h-410z" />
<glyph unicode="&#x43a;" horiz-adv-x="1069" d="M123 0l137 983h328l-60 -434l531 434h45l-23 -164l-268 -217l217 -438l-22 -164h-271l-182 389l-57 -47l-47 -342h-328z" />
<glyph unicode="&#x43b;" horiz-adv-x="1079" d="M41 0l22 164l494 819h217l287 -819l-23 -164h-270l-231 664l-390 -664h-106z" />
<glyph unicode="&#x43c;" horiz-adv-x="1277" d="M123 0l137 983h164l321 -405l404 405h143l-137 -983h-328l78 553l-299 -301l-241 301l-78 -553h-164z" />
<glyph unicode="&#x43d;" d="M123 0l137 983h328l-58 -410h328l57 410h328l-137 -983h-328l58 410h-328l-57 -410h-328z" />
<glyph unicode="&#x43e;" d="M145 164l93 655l186 164h655l142 -164l-93 -655l-186 -164h-655zM473 164h328l92 655h-328z" />
<glyph unicode="&#x43f;" d="M123 0l137 983h983l-137 -983h-328l115 819h-328l-114 -819h-328z" />
<glyph unicode="&#x440;" d="M66 -410l196 1393h328l-12 -82l176 82h327l140 -164l-93 -655l-186 -164h-328l-151 82l-70 -492h-327zM473 164h328l92 655h-328z" />
<glyph unicode="&#x441;" horiz-adv-x="1044" d="M145 164l93 655l186 164h676l-23 -164h-512l-92 -655h512l-22 -164h-676z" />
<glyph unicode="&#x442;" horiz-adv-x="1024" d="M156 819l22 164h942l-22 -164h-307l-115 -819h-328l115 819h-307z" />
<glyph unicode="&#x443;" horiz-adv-x="1150" d="M156 819l22 164h271l325 -616l387 616h86l-22 -164l-770 -1229h-246l22 164h160l184 295z" />
<glyph unicode="&#x444;" horiz-adv-x="1720" d="M145 164l93 655l186 164h246l153 -82l68 492h328l-68 -492l174 82h246l141 -164l-92 -655l-186 -164h-246l-154 82l-67 -492h-328l68 492l-175 -82h-245zM473 164h246l92 655h-246zM1047 164h245l92 655h-245z" />
<glyph unicode="&#x445;" horiz-adv-x="1110" d="M102 0l23 164l319 295l-227 360l23 164h270l223 -348l367 348h45l-23 -164l-319 -297l227 -358l-22 -164h-271l-221 348l-369 -348h-45z" />
<glyph unicode="&#x446;" horiz-adv-x="1290" d="M123 0l137 983h328l-115 -819h328l114 819h328l-115 -819h164l-67 -492h-164l45 328h-983z" />
<glyph unicode="&#x447;" horiz-adv-x="1208" d="M174 512l66 471h327l-65 -471h327l66 471h328l-138 -983h-327l59 430l-174 -82h-328z" />
<glyph unicode="&#x448;" horiz-adv-x="1720" d="M123 0l137 983h328l-115 -819h246l115 819h327l-114 -819h245l115 819h328l-138 -983h-1474z" />
<glyph unicode="&#x449;" horiz-adv-x="1781" d="M123 0l137 983h328l-115 -819h246l115 819h327l-114 -819h245l115 819h328l-115 -819h164l-68 -492h-164l45 328h-1474z" />
<glyph unicode="&#x44a;" horiz-adv-x="1392" d="M135 819l23 164h614l-57 -410l176 82h328l141 -163l-47 -328l-187 -164h-819l115 819h-287zM657 164h328l47 328h-327z" />
<glyph unicode="&#x44b;" horiz-adv-x="1638" d="M123 0l137 983h328l-58 -410l177 82h266l141 -163l-47 -328l-186 -164h-758zM473 164h266l47 328h-266zM1188 0l137 983h328l-137 -983h-328z" />
<glyph unicode="&#x44c;" horiz-adv-x="1208" d="M123 0l137 983h328l-58 -410l177 82h327l142 -163l-48 -328l-186 -164h-819zM473 164h328l47 328h-328z" />
<glyph unicode="&#x44d;" horiz-adv-x="1044" d="M82 0l22 164h512l35 246h-329l22 163h330l35 246h-512l22 164h676l141 -164l-92 -655l-186 -164h-676z" />
<glyph unicode="&#x44e;" horiz-adv-x="1681" d="M123 0l137 983h328l-58 -410h177l34 246l187 164h604l141 -164l-92 -655l-186 -164h-604l-142 164l35 246h-176l-57 -410h-328zM977 164h276l93 655h-277z" />
<glyph unicode="&#x44f;" d="M125 0l22 164l232 205h-41l-139 163l39 287l186 164h328l153 -82l10 82h328l-137 -983h-328l115 819h-328l-43 -307h254l-22 -164l-379 -348h-250z" />
<glyph unicode="&#x450;" horiz-adv-x="1187" d="M145 164l93 655l186 164h655l142 -164l-47 -327l-187 -164h-328l-151 82l-35 -246h614l-22 -164h-778zM518 492h328l47 327h-328zM547 1311h176l117 -144l-15 -102h-86z" />
<glyph unicode="&#x451;" horiz-adv-x="1187" d="M145 164l93 655l186 164h655l142 -164l-47 -327l-187 -164h-328l-151 82l-35 -246h614l-22 -164h-778zM463 1106l22 164h185l-23 -164h-184zM518 492h328l47 327h-328zM852 1106l22 164h185l-23 -164h-184z" />
<glyph unicode="&#x452;" horiz-adv-x="1351" d="M203 1147l16 123h205l18 123h328l-18 -123h225l-16 -123h-226l-35 -246l177 82h327l142 -164l-152 -1065l-186 -164h-492l23 164h327l152 1065h-328l-117 -819h-327l162 1147h-205z" />
<glyph unicode="&#x453;" horiz-adv-x="860" d="M123 0l137 983h696l-22 -164h-369l-114 -819h-328zM598 1065l14 102l158 144h176l-262 -246h-86z" />
<glyph unicode="&#x454;" horiz-adv-x="1044" d="M145 164l93 655l186 164h676l-23 -164h-512l-35 -246h330l-22 -163h-330l-35 -246h512l-22 -164h-676z" />
<glyph unicode="&#x455;" horiz-adv-x="1105" d="M102 0l23 164h573l35 246h-409l-142 163l35 246l186 164h717l-22 -164h-553l-35 -246h410l141 -163l-35 -246l-186 -164h-738z" />
<glyph unicode="&#x456;" horiz-adv-x="573" d="M123 0l137 983h328l-137 -983h-328zM285 1147l22 164h328l-23 -164h-327z" />
<glyph unicode="&#x457;" horiz-adv-x="573" d="M123 0l137 983h328l-137 -983h-328zM223 1147l23 164h164l-23 -164h-164zM510 1147l22 164h164l-22 -164h-164z" />
<glyph unicode="&#x458;" horiz-adv-x="550" d="M-98 -246l22 164h164l150 1065h327l-149 -1065l-187 -164h-327zM262 1147l23 164h327l-22 -164h-328z" />
<glyph unicode="&#x459;" horiz-adv-x="1720" d="M41 0l22 164l494 819h604l-57 -410l176 82h266l142 -163l-48 -328l-186 -164h-758l115 819h-184l-480 -819h-106zM1047 164h266l47 328h-266z" />
<glyph unicode="&#x45a;" horiz-adv-x="1763" d="M123 0l137 983h328l-58 -410h287l57 410h328l-57 -410l176 82h266l142 -163l-48 -328l-186 -164h-758l58 410h-287l-57 -410h-328zM1087 164h267l47 328h-266z" />
<glyph unicode="&#x45b;" horiz-adv-x="1351" d="M203 1147l16 123h205l18 123h328l-18 -123h225l-16 -123h-226l-35 -246l177 82h327l142 -164l-117 -819h-328l117 819h-328l-117 -819h-327l162 1147h-205z" />
<glyph unicode="&#x45c;" horiz-adv-x="1069" d="M123 0l137 983h328l-60 -434l531 434h45l-23 -164l-268 -217l217 -438l-22 -164h-271l-182 389l-57 -47l-47 -342h-328zM723 1065l14 102l158 144h176l-262 -246h-86z" />
<glyph unicode="&#x45d;" d="M123 0l137 983h328l-80 -573l385 409l22 164h328l-137 -983h-328l80 573l-385 -409l-22 -164h-328zM549 1311h176l117 -144l-15 -102h-86z" />
<glyph unicode="&#x45e;" horiz-adv-x="1150" d="M156 819l22 164h271l325 -616l387 616h86l-22 -164l-770 -1229h-246l22 164h160l184 295zM598 1188l16 123h164l-14 -103h246l14 103h164l-17 -123l-94 -82h-409z" />
<glyph unicode="&#x45f;" d="M123 0l137 983h328l-115 -819h328l114 819h328l-137 -983h-410l-57 -410h-164l57 410h-409z" />
<glyph unicode="&#x462;" horiz-adv-x="1556" d="M203 1147l22 164h1024l-22 -164h-389l-58 -410l176 82h451l139 -164l-67 -491l-189 -164h-942l162 1147h-307zM700 164h451l68 491h-451z" />
<glyph unicode="&#x463;" horiz-adv-x="1351" d="M203 1147l16 123h205l18 123h328l-18 -123h225l-16 -123h-226l-35 -246l177 82h327l142 -164l-93 -655l-188 -164h-819l162 1147h-205zM598 164h328l92 655h-328z" />
<glyph unicode="&#x472;" horiz-adv-x="1392" d="M145 164l138 983l188 164h819l140 -164l-138 -983l-186 -164h-819zM473 164h492l45 328h-181l-112 131l10 65h-180zM565 819h180l113 -131l-10 -65h180l74 524h-492z" />
<glyph unicode="&#x473;" d="M145 164l93 655l186 164h655l142 -164l-93 -655l-186 -164h-655zM473 164h328l26 196h-110l-90 105l6 53h-111zM537 623h110l92 -105l-6 -53h111l49 354h-328z" />
<glyph unicode="&#x474;" horiz-adv-x="1273" d="M203 1147l22 164h271l288 -967l527 967h106l-22 -164l-633 -1147h-217z" />
<glyph unicode="&#x475;" horiz-adv-x="1079" d="M156 819l22 164h271l231 -664l389 664h107l-23 -164l-494 -819h-217z" />
<glyph unicode="&#x490;" horiz-adv-x="1146" d="M123 0l184 1311h821l23 164h164l-47 -328h-656l-161 -1147h-328z" />
<glyph unicode="&#x491;" horiz-adv-x="860" d="M123 0l137 983h535l24 164h164l-49 -328h-369l-114 -819h-328z" />
<glyph unicode="&#x4d8;" horiz-adv-x="1331" d="M145 164l58 409l186 164h430l154 -82l67 492h-696l25 164h860l139 -164l-137 -983l-187 -164h-757zM473 164h430l58 409h-431z" />
<glyph unicode="&#x4d9;" horiz-adv-x="1187" d="M104 164l46 328l188 163h328l151 -82l35 246h-614l22 164h778l142 -164l-93 -655l-186 -164h-655zM432 164h328l45 328h-328z" />
<glyph unicode="&#x2000;" horiz-adv-x="860" />
<glyph unicode="&#x2001;" horiz-adv-x="1720" />
<glyph unicode="&#x2002;" horiz-adv-x="860" />
<glyph unicode="&#x2003;" horiz-adv-x="1720" />
<glyph unicode="&#x2004;" horiz-adv-x="573" />
<glyph unicode="&#x2005;" horiz-adv-x="430" />
<glyph unicode="&#x2006;" horiz-adv-x="286" />
<glyph unicode="&#x2007;" horiz-adv-x="286" />
<glyph unicode="&#x2008;" horiz-adv-x="215" />
<glyph unicode="&#x2009;" horiz-adv-x="344" />
<glyph unicode="&#x200a;" horiz-adv-x="95" />
<glyph unicode="&#x2010;" horiz-adv-x="737" d="M205 573v164h491v-164h-491z" />
<glyph unicode="&#x2011;" horiz-adv-x="737" d="M205 573v164h491v-164h-491z" />
<glyph unicode="&#x2012;" horiz-adv-x="737" d="M164 594v123h573v-123h-573z" />
<glyph unicode="&#x2013;" horiz-adv-x="1003" d="M205 573v164h758v-164h-758z" />
<glyph unicode="&#x2014;" horiz-adv-x="1269" d="M205 573v164h1024v-164h-1024z" />
<glyph unicode="&#x2018;" horiz-adv-x="573" d="M217 676l51 368l269 349h65l-22 -164l-181 -225h191l-45 -328h-328z" />
<glyph unicode="&#x2019;" horiz-adv-x="573" d="M250 594l22 164l181 225h-191l45 328h328l-51 -369l-269 -348h-65z" />
<glyph unicode="&#x201a;" horiz-adv-x="573" d="M111 -389l22 164l180 225h-190l45 328h328l-52 -369l-268 -348h-65z" />
<glyph unicode="&#x201c;" horiz-adv-x="983" d="M217 676l51 368l269 349h65l-22 -164l-181 -225h191l-45 -328h-328zM637 676l51 368l268 349h66l-23 -164l-180 -225h191l-45 -328h-328z" />
<glyph unicode="&#x201d;" horiz-adv-x="983" d="M240 594l22 164l180 225h-190l45 328h328l-52 -369l-268 -348h-65zM659 594l23 164l180 225h-190l45 328h327l-51 -369l-268 -348h-66z" />
<glyph unicode="&#x201e;" horiz-adv-x="983" d="M100 -389l23 164l180 225h-190l45 328h327l-51 -369l-268 -348h-66zM520 -389l23 164l180 225h-191l46 328h327l-51 -369l-268 -348h-66z" />
<glyph unicode="&#x2022;" horiz-adv-x="737" d="M123 614v164l164 164h164l163 -164v-164l-163 -163h-164z" />
<glyph unicode="&#x2026;" horiz-adv-x="1638" d="M123 0l45 328h328l-45 -328h-328zM655 0l45 328h328l-45 -328h-328zM1188 0l45 328h328l-45 -328h-328z" />
<glyph unicode="&#x202f;" horiz-adv-x="344" />
<glyph unicode="&#x2030;" horiz-adv-x="1542" d="M121 0l22 164l926 1147h86l-22 -164l-926 -1147h-86zM207 893l49 352l76 66h235l56 -66l-50 -352l-73 -66h-236zM651 66l51 352l74 65h236l57 -65l-51 -352l-74 -66h-235zM1102 66l51 352l74 65h235l58 -65l-52 -352l-73 -66h-236z" />
<glyph unicode="&#x2039;" horiz-adv-x="641" d="M147 471l7 41l497 471h45l-20 -154l-359 -337l263 -338l-21 -154h-45z" />
<glyph unicode="&#x203a;" horiz-adv-x="641" d="M82 0l22 154l357 338l-262 337l20 154h45l367 -471l-6 -41l-498 -471h-45z" />
<glyph unicode="&#x203c;" horiz-adv-x="1105" d="M123 0l45 328h328l-45 -328h-328zM199 532l108 779h328l-109 -779l-188 -163zM655 0l45 328h328l-45 -328h-328zM731 532l109 779h327l-108 -779l-189 -163z" />
<glyph unicode="&#x2044;" horiz-adv-x="280" d="M-205 0l12 86l781 1225h82l-13 -86l-780 -1225h-82z" />
<glyph unicode="&#x205f;" horiz-adv-x="430" />
<glyph unicode="&#x20ac;" d="M145 451l17 122h143l25 164h-144l17 123h143l41 287l186 164h779l-23 -164h-614l-41 -287h327l-16 -123h-328l-24 -164h328l-17 -122h-328l-41 -287h615l-23 -164h-778l-141 164l41 287h-144z" />
<glyph unicode="&#x2122;" horiz-adv-x="1423" d="M213 1229l12 82h553l-12 -82h-195l-79 -574h-164l80 574h-195zM748 655l92 656h82l225 -285l287 285h71l-92 -656h-164l62 441l-232 -234l-188 234l-62 -441h-81z" />
<glyph unicode="&#x25fc;" horiz-adv-x="983" d="M0 0v983h983v-983h-983z" />
</font>
</defs>
</svg>
