<?xml version="1.0" encoding="utf-8"?>
<!-- Generator: Adobe Illustrator 16.0.3, SVG Export Plug-In . SVG Version: 6.00 Build 0)  -->
<!DOCTYPE svg PUBLIC "-//W3C//DTD SVG 1.1//EN" "http://www.w3.org/Graphics/SVG/1.1/DTD/svg11.dtd">
<svg version="1.1" id="Layer_1" xmlns="http://www.w3.org/2000/svg" xmlns:xlink="http://www.w3.org/1999/xlink" x="0px" y="0px"
	 width="265.365px" height="141.732px" viewBox="0 0 265.365 141.732" enable-background="new 0 0 265.365 141.732"
	 xml:space="preserve">
<g id="product_logo">
</g>
<g id="guides">
</g>
<g id="LEGO_LOGO_SMALL_RGB">
	<g>
		<path fill="#FFFFFF" d="M0.961,0.948v139.839h139.84V0.948H0.961z"/>
		<path fill="#F6EC36" d="M0.961,0.948v139.839h139.84V0.948H0.961z M131.497,59.075c-0.23,4.356-1.617,9.786-2.839,13.414
			c-4.917,14.609-10.618,23.666-23.821,23.666c-3.887,0-10.783-1.031-13.324-7.947l-0.602-1.641l-1.082,1.371
			c-4.129,5.23-10.265,8.248-16.831,8.279c-5.038,0.023-9.086-1.664-11.705-4.883l-0.718-0.883l-0.765,0.844
			c-2.797,3.088-7.668,4.859-13.364,4.859c-4.473,0-8.335-1.521-10.876-4.277l-0.692-0.752l-0.72,0.727
			c-2.825,2.852-7.276,4.289-12.873,4.158c-6.79-0.162-10.924-3.951-11.058-10.141c-0.205-9.543,9.031-29.622,12.854-35.727
			c2.482-4.078,5.895-6.055,10.438-6.055c3.092,0,5.207,0.646,6.463,1.977c1.144,1.211,1.37,2.232,1.472,4.688l0.131,3.175
			l1.676-2.7c4.054-6.532,10.773-7.434,17.43-7.434c4.628,0,8.667,1.702,10.289,4.336l0.599,0.971l0.866-0.737
			c3.431-2.916,8.271-4.521,13.629-4.521c5.849,0,10.099,1.454,12.634,4.322c0.576,0.651,0.957,1.106,1.486,2.219l0.651,1.366
			l0.977-1.155c3.712-4.39,8.779-6.615,15.067-6.615c4.98,0,8.761,1.324,11.235,3.935C131.228,51.185,131.671,55.789,131.497,59.075
			z"/>
		<path fill="#D01012" d="M0.961,0.948v139.839h139.84V0.948H0.961z M135.435,64.44c-0.633,5.089-4.072,14.518-5.899,18.286
			c-4.903,10.102-11.453,17.863-24.074,17.863c-6.742,0-12.288-2.15-15.531-6.283c-4.749,4.162-10.627,6.342-16.956,6.342
			c-4.876,0-9.185-1.408-12.471-4.012c-3.626,2.555-8.52,3.98-13.943,3.98c-4.53,0-8.606-1.244-11.796-3.543
			c-3.529,2.342-8.154,3.506-13.583,3.377c-9.033-0.213-15.27-5.943-15.449-14.262c-0.236-11.051,9.07-31.277,13.456-38.281
			c3.282-5.392,8.292-8.293,14.431-8.293c6.663,0,9.078,1.903,10.267,4.326c5.141-4.366,11.956-4.617,16.808-4.617
			c5.356,0,8.717,1.422,11.575,3.697c3.948-2.368,8.477-3.599,13.871-3.599c6.897,0,12.021,1.604,15.595,5.137
			c4.168-3.469,9.388-5.05,15.23-5.05c7.725,0,12.808,2.786,15.793,6.94C136.962,52.307,136.21,58.205,135.435,64.44z"/>
		<path d="M0,0v141.731h141.73V0H0z M139.781,1.952v137.832H1.951V1.952H139.781z"/>
		<path d="M134.752,42.53v-0.965h0.655c0.479,0,0.728,0.168,0.728,0.479c0,0.247-0.16,0.486-0.647,0.486H134.752z M137.103,44.532
			l-0.408-0.708c-0.354-0.619-0.452-0.717-0.755-0.823v-0.019c0.596-0.07,0.95-0.453,0.95-0.983c0-0.56-0.354-0.984-1.109-0.984
			h-1.754v3.519h0.727v-1.441h0.133c0.311,0,0.435,0.035,0.576,0.176c0.142,0.144,0.354,0.443,0.479,0.69l0.284,0.575
			L137.103,44.532L137.103,44.532z M135.372,40.035c1.51,0,2.737,1.218,2.737,2.726s-1.229,2.731-2.737,2.731
			c-1.506,0-2.72-1.225-2.72-2.731S133.866,40.035,135.372,40.035z M135.372,39.365c-1.877,0-3.392,1.516-3.392,3.396
			c0,1.879,1.515,3.394,3.392,3.394c1.883,0,3.397-1.515,3.397-3.394C138.771,40.879,137.255,39.365,135.372,39.365z"/>
		<path d="M116.889,43.002c-7.325,0-12.386,2.904-15.812,6.961c-0.579-1.214-1.019-1.746-1.638-2.447
			c-2.805-3.17-7.313-4.649-13.364-4.649c-5.912,0-10.841,1.846-14.263,4.754c-1.777-2.89-6.013-4.803-11.121-4.803
			c-6.674,0-13.946,0.944-18.261,7.896c-0.104-2.503-0.33-3.828-1.737-5.317c-1.71-1.81-4.477-2.282-7.173-2.282
			c-4.912,0-8.605,2.146-11.266,6.515C18.395,55.793,9.042,76.071,9.253,85.893c0.137,6.344,4.393,10.916,12.01,11.096
			c5.952,0.143,10.62-1.449,13.59-4.447c2.665,2.896,6.731,4.594,11.596,4.594c5.417,0,10.868-1.627,14.088-5.182
			c2.712,3.332,6.979,5.271,12.468,5.244c7.175-0.035,13.477-3.438,17.593-8.652c2.259,6.148,7.985,8.59,14.241,8.59
			c13.709,0,19.729-9.428,24.748-24.332c1.13-3.357,2.639-8.963,2.889-13.672C132.889,51.293,129.573,43.002,116.889,43.002z
			 M25.672,80.477c7.093-1.232,8.876,1.332,8.653,3.707c-0.669,7.109-7.191,8.699-12.854,8.566c-4.107-0.1-7.8-1.98-7.903-6.748
			c-0.18-8.342,8.328-27.641,12.333-34.038c1.85-3.037,4.104-4.539,7.698-4.539c3.406,0,4.25,1.749,4.2,3.844
			C37.665,56.858,28.635,73.843,25.672,80.477z M48.77,73.925c-0.469,1.27-1.357,3.93-2.076,6.75
			c2.328-0.582,4.074-0.986,7.065-0.914c3.408,0.084,5.586,1.496,5.586,4.314c0,6.832-7.551,8.838-12.789,8.838
			c-5.751,0-10.803-3.275-10.803-9.564c0-7.373,3.997-18.553,7.748-26.001c4.606-9.146,9.312-10.362,17.419-10.362
			c3.562,0,7.667,1.524,7.667,4.888c0,4.662-3.95,6.44-7.866,6.665c-1.672,0.096-4.246,0.188-5.786,0.079
			c0,0-1.303,1.985-2.688,5.523c7.252-1.021,10.327,0.625,9.103,4.82C59.693,74.628,54.783,75.001,48.77,73.925z M84.438,56.293
			c-1.961,0-3.244,1.242-4.198,2.583c-2.102,2.952-6.656,14.781-7.365,19.64c-0.486,3.328,0.951,4.006,2.522,4.006
			c2.52,0,5.345-2.666,6.309-7.064c0,0-4.797-0.117-3.475-4.371c1.285-4.128,3.723-5.022,7.764-5.188
			c7.961-0.325,7.175,5.553,6.538,8.688c-2.069,10.18-9.314,18.355-19.562,18.355c-7.016,0-11.371-3.881-11.371-11.035
			c0-5.098,2.529-13.101,4.534-17.784c4.267-9.968,8.742-16.944,20.143-16.944c6.84,0,12.235,2.458,11.444,8.866
			c-0.58,4.703-2.934,7.465-7.21,7.799c-1.196,0.093-6.089-0.031-4.466-4.66C86.61,57.565,86.844,56.293,84.438,56.293z
			 M127.495,64.706c-1.205,6.002-3.916,13.101-6.859,18.392c-4.801,8.633-10.633,9.842-15.723,9.781
			c-5.093-0.061-10.83-1.941-10.874-9.795c-0.031-5.639,2.401-13.598,4.466-18.815c3.599-9.458,7.277-17.17,18.904-17.031
			C130.968,47.399,128.55,59.457,127.495,64.706z M115.993,56.49c-1.164-0.016-2.18,0.212-3.093,1.62
			c-2.051,2.657-8.047,19.042-7.941,22.31c0.038,1.174,0.687,2.201,2.133,2.201c1.659,0.002,2.581-1.145,3.396-2.529
			c1.887-3.193,7.193-17.676,7.339-21.297C117.87,57.74,117.694,56.511,115.993,56.49z"/>
	</g>
</g>
<path fill="#555555" d="M237.289,51.099h-0.005h-12.082c-1.157,0-2.257,0.501-3.017,1.374l-15.428,17.72l-14.639-17.647
	c-0.761-0.916-1.889-1.446-3.079-1.446h-11.779c-1.551,0-2.962,0.896-3.621,2.3s-0.447,3.062,0.543,4.255l29.423,35.449
	c0.752,0.905,1.863,1.434,3.039,1.445c0.014,0,0.026,0,0.039,0c1.162,0,2.268-0.506,3.028-1.386l30.54-35.38
	c0.643-0.709,1.035-1.65,1.035-2.683C241.287,52.89,239.498,51.099,237.289,51.099z"/>
</svg>
